<?xml version='1.0' encoding='utf-8'?>
<svg width="100.09mm" height="93.786705mm" viewBox="-21.811139 -22.356152 49.261154 46.15887" version="1.1" xmlns="http://www.w3.org/2000/svg">
  <g transform="scale(1,-1)" stroke-linecap="round">
    <g fill="none" stroke="rgb(0,0,0)" stroke-width="0.04429517289525976" id="Visible">
      <path d="M 7.194711,-17.106428 Q 6.936566,-16.790413 6.701911,-16.474681" />
      <path d="M 6.701911,-16.474681 C 6.611269,-16.355305 6.453729,-16.283796 6.371355,-16.258164" />
      <path d="M 6.371355,-16.258164 C 5.983107,-16.128243 5.37825,-15.736449 4.873589,-15.355356" />
      <path d="M 11.196315,-2.863926 C 12.862032,-1.686691 14.831005,-0.856681 16.961018,-0.350507" />
      <path d="M 4.873589,-15.355356 Q 4.605959,-14.943465 4.379283,-14.544874" />
      <path d="M 16.961018,-0.350507 Q 17.337004,-0.517276 17.733775,-0.728662" />
      <path d="M 4.379283,-14.544874 Q 4.470347,-13.908211 4.594644,-13.28485" />
      <path d="M 11.041007,-3.192774 C 12.972608,-1.947862 15.274663,-1.144925 17.733775,-0.728662" />
      <path d="M 4.379283,-14.544874 C 4.553571,-14.384274 4.861273,-14.288841 5.243688,-14.409201" />
      <path d="M 17.733775,-0.728662 C 18.164296,-1.224866 18.62813,-1.835617 18.828241,-2.257638" />
      <path d="M 5.243688,-14.409201 L 5.318413,-14.150959" />
      <path d="M 16.416966,-2.871667 Q 17.598588,-2.504581 18.828241,-2.257638" />
      <path d="M 5.243688,-14.409201 C 5.309995,-14.431588 5.402254,-14.44919 5.416307,-14.404508" />
      <path d="M 5.416307,-14.404508 Q 5.422475,-14.386657 5.408197,-14.35346" />
      <path d="M 18.828241,-2.257638 C 18.869146,-2.347653 18.965436,-2.514263 19.083656,-2.590822" />
      <path d="M 18.735136,-2.665386 L 19.083656,-2.590822" />
      <path d="M 5.408197,-14.35346 Q 5.278521,-14.071821 5.183507,-13.808784" />
      <path d="M 19.083656,-2.590822 L 19.17133,-2.64662" />
      <path d="M 5.183507,-13.808784 C 5.14473,-13.707816 4.968151,-13.565877 4.866382,-13.494562" />
      <path d="M 4.866382,-13.494562 L 4.866381,-13.494561" />
      <path d="M 4.866381,-13.494561 C 4.394029,-13.156186 3.810219,-12.5823 3.366642,-12.090107" />
      <path d="M 20.503733,-2.623625 L 20.529746,-2.623348" />
      <path d="M 20.529746,-2.623348 L 20.567964,-2.623746" />
      <path d="M 8.242211,-5.841941 C 9.863301,-4.69002 11.769749,-3.868247 13.840206,-3.354467 C 15.908802,-2.837805 18.139909,-2.628513 20.360075,-2.623748" />
      <path d="M 20.360075,-2.623748 L 20.567964,-2.623746" />
      <path d="M 3.366642,-12.090107 Q 3.299864,-11.77733 3.283236,-11.500145" />
      <path d="M 20.567964,-2.623746 Q 20.992516,-2.961539 21.412112,-3.326737" />
      <path d="M 3.283236,-11.500145 Q 3.391152,-11.290369 3.505046,-11.084991" />
      <path d="M 7.928295,-6.272744 C 9.743795,-5.062288 11.89353,-4.250558 14.209749,-3.794944 C 16.523716,-3.335376 19.001436,-3.230405 21.412112,-3.326737" />
      <path d="M 3.283236,-11.500145 C 3.671068,-11.598032 4.204739,-11.817259 4.676106,-12.148673" />
      <path d="M 21.412112,-3.326737 C 21.653135,-3.788835 21.851662,-4.305477 21.810019,-4.567483" />
      <path d="M 4.676106,-12.148673 Q 4.813327,-11.944375 4.956661,-11.744973" />
      <path d="M 13.49456,-5.827267 C 16.145472,-4.994697 19.051234,-4.666079 21.810019,-4.567483" />
      <path d="M 4.676106,-12.148673 C 4.77264,-12.218039 4.930899,-12.315592 4.961326,-12.273487" />
      <path d="M 4.961326,-12.273487 L 4.965214,-12.264715" />
      <path d="M 21.810019,-4.567483 C 21.798496,-4.621965 21.807732,-4.739042 21.921853,-4.851204" />
      <path d="M 15.812727,-5.620968 C 17.829849,-5.174667 19.920869,-4.958947 21.921853,-4.851204" />
      <path d="M 4.965214,-12.264715 Q 4.998753,-12.092917 5.068839,-11.953056" />
      <path d="M 21.921853,-4.851204 Q 22.226595,-5.145402 22.518278,-5.451112" />
      <path d="M 20.195595,-5.57591 Q 21.377289,-5.490862 22.518278,-5.451112" />
      <path d="M 5.068839,-11.953056 C 5.092317,-11.897551 4.944014,-11.723213 4.850118,-11.625324" />
      <path d="M 4.850118,-11.625325 L 4.850117,-11.625323" />
      <path d="M 22.518278,-5.451112 C 22.597383,-5.532665 22.683082,-5.564543 22.746633,-5.573452" />
      <path d="M 4.850117,-11.625323 C 4.420227,-11.169161 4.013896,-10.566955 3.750258,-10.095546" />
      <path d="M 22.851459,-5.57331 C 23.141286,-5.573415 23.647749,-5.785233 24.100103,-6.030422" />
      <path d="M 3.750258,-10.095546 C 5.410702,-8.492065 7.509093,-7.32493 9.867376,-6.602012 C 12.222744,-5.873265 14.832822,-5.584142 17.437927,-5.57932" />
      <path d="M 17.437927,-5.57932 C 19.728377,-5.572203 22.011373,-5.780151 24.100103,-6.030422" />
      <path d="M 3.750258,-10.095546 Q 3.902225,-9.965691 4.100101,-9.884184" />
      <path d="M 24.100103,-6.030422 Q 24.459462,-6.448727 24.789454,-6.869884" />
      <path d="M 4.100101,-9.884184 C 5.410062,-8.851186 6.932616,-8.046632 8.597313,-7.47113 C 10.261207,-6.893954 12.066203,-6.544822 13.919347,-6.37745 C 15.772176,-6.208877 17.672113,-6.221056 19.517362,-6.334047 C 21.362782,-6.446309 23.152474,-6.658374 24.789454,-6.869884" />
      <path d="M 4.100101,-9.884184 C 4.597559,-10.214328 5.214201,-10.689473 5.648217,-11.143141" />
      <path d="M 24.789454,-6.869884 C 24.776398,-7.174056 24.656422,-7.458157 24.384182,-7.489943" />
      <path d="M 5.648217,-11.143141 Q 5.894883,-10.971358 6.149075,-10.808432" />
      <path d="M 10.572071,-8.782874 C 12.832418,-8.074478 15.271571,-7.728579 17.652811,-7.58353 C 20.034468,-7.435825 22.353267,-7.483301 24.384182,-7.489943" />
      <path d="M 5.648217,-11.143141 C 5.740908,-11.241757 5.911116,-11.402863 5.984458,-11.399872" />
      <path d="M 24.384182,-7.489943 C 24.323318,-7.494294 24.243027,-7.530467 24.32247,-7.648179" />
      <path d="M 5.984458,-11.399872 Q 6.159328,-11.282364 6.337736,-11.169094" />
      <path d="M 12.890403,-8.57652 C 14.849577,-8.143292 16.875213,-7.927241 18.826212,-7.816441 C 20.777679,-7.704602 22.65242,-7.695508 24.32247,-7.648179" />
      <path d="M 5.984458,-11.399872 Q 6.172226,-11.383948 6.388633,-11.404738" />
      <path d="M 24.32247,-7.648179 Q 24.538877,-7.961199 24.726645,-8.266758" />
      <path d="M 6.388633,-11.404738 L 6.419553,-11.387203" />
      <path d="M 17.273126,-8.53151 C 19.972392,-8.33126 22.562745,-8.363021 24.726645,-8.266758" />
      <path d="M 6.388633,-11.404738 Q 6.401035,-11.405478 6.408514,-11.401175" />
      <path d="M 6.408514,-11.401175 C 6.451468,-11.37669 6.381469,-11.239384 6.326922,-11.151313" />
      <path d="M 6.326921,-11.151312 L 6.32692,-11.151311" />
      <path d="M 24.726645,-8.266758 C 24.799987,-8.38288 24.970194,-8.484323 25.062885,-8.528683" />
      <path d="M 25.062885,-8.528683 L 25.062886,-8.528683" />
      <path d="M 20.384604,-8.528026 L 20.645654,-8.527663" />
      <path d="M 20.645654,-8.527663 C 22.241177,-8.527167 23.736631,-8.556881 25.062886,-8.528684" />
      <path d="M 6.32692,-11.151311 C 6.054681,-10.699591 5.934705,-10.230425 5.921649,-9.906113" />
      <path d="M 25.062886,-8.528683 C 25.496904,-8.744494 26.113545,-9.220528 26.611002,-9.65772" />
      <path d="M 5.921649,-9.906113 C 8.529466,-8.923968 11.528335,-8.538521 14.515709,-8.53488" />
      <path d="M 14.515709,-8.53488 C 16.771347,-8.528073 19.016596,-8.729071 21.082485,-8.974663 C 23.149851,-9.219795 25.035231,-9.506175 26.611002,-9.65772" />
      <path d="M 5.921649,-9.906113 Q 6.251641,-9.993975 6.611,-10.129986" />
      <path d="M 26.611002,-9.65772 Q 26.808878,-10.044452 26.960845,-10.408719" />
      <path d="M 6.611,-10.129986 C 8.320799,-9.635188 10.160557,-9.361642 12.028272,-9.257658 C 13.896015,-9.152478 15.790713,-9.215472 17.611111,-9.361457 C 19.432005,-9.506897 21.177597,-9.733941 22.760521,-9.942126 C 24.34441,-10.150415 25.764629,-10.338458 26.960845,-10.408719" />
      <path d="M 6.611,-10.129986 C 7.08479,-10.603925 7.619174,-11.207674 7.899545,-11.662034" />
      <path d="M 26.960845,-10.408719 Q 26.836403,-10.439545 26.677216,-10.44039" />
      <path d="M 7.899545,-11.662034 C 10.204525,-10.969304 12.693308,-10.644934 15.103756,-10.517549 C 17.515749,-10.387408 19.844648,-10.446448 21.871566,-10.446132" />
      <path d="M 21.871566,-10.446132 L 22.076989,-10.445847" />
      <path d="M 7.899545,-11.662034 C 7.958035,-11.759497 8.081485,-11.933536 8.192825,-11.990665" />
      <path d="M 8.192825,-11.990665 Q 8.605464,-11.867415 9.024643,-11.758487" />
      <path d="M 9.968183,-11.532068 C 12.523195,-10.966003 15.191908,-10.773971 17.65748,-10.694602 C 20.126457,-10.613484 22.385472,-10.633254 24.213053,-10.443583" />
      <path d="M 8.192825,-11.990665 Q 8.484508,-12.134881 8.78925,-12.310752" />
      <path d="M 25.695919,-10.441633 Q 25.726848,-10.576834 25.745889,-10.703801" />
      <path d="M 8.78925,-12.310752 L 8.900682,-12.284008" />
      <path d="M 14.350611,-11.487087 C 16.657447,-11.316067 18.882855,-11.314146 20.831289,-11.257458 C 22.783164,-11.201591 24.454435,-11.084002 25.745889,-10.703801" />
      <path d="M 8.78925,-12.310752 Q 8.836896,-12.336657 8.862519,-12.329487" />
      <path d="M 8.862519,-12.329487 C 8.906935,-12.319074 8.909353,-12.251587 8.901084,-12.199538" />
      <path d="M 25.745889,-10.703801 C 25.761583,-10.790316 25.93294,-10.949635 26.034996,-11.033712" />
      <path d="M 26.034996,-11.033711 L 26.034998,-11.033712" />
      <path d="M 17.462395,-11.483597 L 17.723445,-11.483241" />
      <path d="M 17.723445,-11.483241 C 19.443358,-11.482797 21.045166,-11.517202 22.449672,-11.476574 C 23.855662,-11.436593 25.063311,-11.31957 26.034997,-11.033713" />
      <path d="M 8.901083,-12.199536 C 8.859441,-11.873295 9.057968,-11.662883 9.298991,-11.572568" />
      <path d="M 26.034998,-11.033712 C 26.506365,-11.42939 27.040035,-12.033357 27.427867,-12.533707" />
      <path d="M 9.298991,-11.572568 Q 10.441476,-11.492257 11.593592,-11.490466" />
      <path d="M 11.593592,-11.490466 C 14.963345,-11.47884 18.300275,-11.93716 21.065919,-12.301296 C 22.451353,-12.482719 23.698162,-12.637927 24.767019,-12.697458 C 25.836804,-12.757528 26.728202,-12.721066 27.427867,-12.533707" />
      <path d="M 9.298991,-11.572568 Q 9.718587,-11.854603 10.143139,-12.171688" />
      <path d="M 27.427867,-12.533707 Q 27.411239,-12.785242 27.344461,-12.995014" />
      <path d="M 10.143139,-12.171688 C 13.048344,-12.098203 15.97719,-12.401862 18.553476,-12.730891 C 21.135789,-13.059641 23.359796,-13.400729 25.018089,-13.394567" />
      <path d="M 25.018089,-13.394567 C 25.979787,-13.392352 26.756651,-13.275085 27.344461,-12.995014" />
      <path d="M 10.143139,-12.171688 C 10.46631,-12.662431 10.775249,-13.233009 10.82685,-13.566317" />
      <path d="M 10.82685,-13.566317 C 13.709146,-13.320206 16.547726,-13.401443 18.949342,-13.401703" />
      <path d="M 18.949342,-13.401703 L 19.154765,-13.401423" />
      <path d="M 10.82685,-13.566317 C 10.835465,-13.636511 10.87908,-13.77685 10.998583,-13.87879" />
      <path d="M 10.998583,-13.87879 C 12.92541,-13.690262 14.828647,-13.639376 16.578585,-13.602614 C 18.330269,-13.565721 19.927876,-13.540301 21.290573,-13.399184" />
      <path d="M 10.998583,-13.87879 Q 11.316026,-14.144505 11.627447,-14.428332" />
      <path d="M 11.627447,-14.428332 C 14.127016,-14.252783 16.528981,-14.269644 18.575035,-14.190635 C 20.627066,-14.113169 22.321082,-13.930023 23.566113,-13.396152" />
      <path d="M 11.627447,-14.428332 C 11.70111,-14.494371 11.766598,-14.512147 11.815063,-14.50962" />
      <path d="M 11.815063,-14.50962 Q 11.859288,-14.505846 11.882861,-14.489128" />
      <path d="M 14.540094,-14.439198 L 14.801094,-14.438844" />
      <path d="M 14.801094,-14.438844 C 16.972567,-14.43849 18.951466,-14.492604 20.58816,-14.383375 C 22.229189,-14.276248 23.526842,-13.999919 24.45287,-13.395449" />
      <path d="M 11.882861,-14.489127 Q 11.970606,-14.441006 12.114541,-14.441729" />
      <path d="M 12.114541,-14.441729 C 12.348788,-14.441607 12.669966,-14.52876 12.977328,-14.648383" />
      <path d="M 26.070396,-13.335251 Q 26.228431,-13.63193 26.33182,-13.887766" />
      <path d="M 12.977328,-14.648383 C 14.549062,-14.788254 16.059773,-14.983154 17.447407,-15.165463 C 18.835843,-15.347871 20.101103,-15.517049 21.203562,-15.608135 C 22.306868,-15.699619 23.247274,-15.712373 24.008879,-15.592667 C 24.771379,-15.473659 25.354979,-15.221554 25.768807,-14.802135" />
      <path d="M 25.768807,-14.802135 Q 26.13305,-14.433058 26.33182,-13.887766" />
      <path d="M 12.977328,-14.648383 Q 13.374099,-15.049022 13.750085,-15.462218" />
      <path d="M 13.750085,-15.462218 C 15.4301,-15.646009 17.012042,-15.871666 18.421277,-16.048538 C 19.831793,-16.225761 21.06956,-16.353242 22.095818,-16.350158" />
      <path d="M 22.095818,-16.350158 C 23.490161,-16.348175 24.489988,-16.099679 25.105748,-15.472724" />
      <path d="M 13.750085,-15.462218 C 13.836043,-15.838271 13.836757,-16.222792 13.645761,-16.345739" />
      <path d="M 13.645761,-16.345739 Q 14.889615,-16.354301 16.027031,-16.357302" />
      <path d="M 16.027031,-16.357302 L 16.232416,-16.357024" />
      <path d="M 13.645761,-16.345739 C 13.602195,-16.369854 13.554287,-16.43889 13.649932,-16.558327" />
      <path d="M 13.649932,-16.558327 C 15.401377,-16.521388 17.003855,-16.496152 18.36812,-16.354757" />
      <path d="M 13.649932,-16.558327 Q 13.908077,-16.874342 14.142732,-17.190074" />
      <path d="M 14.142732,-17.190074 C 15.501051,-17.159473 16.748526,-17.117641 17.840856,-16.99785 C 18.934317,-16.878566 19.872846,-16.680696 20.643812,-16.35171" />
      <path d="M 14.142732,-17.190074 C 14.233374,-17.309449 14.390914,-17.380958 14.473288,-17.406591" />
      <path d="M 14.473289,-17.406591 C 16.045885,-17.412725 17.457042,-17.394796 18.643456,-17.248663 C 19.831932,-17.103605 20.796157,-16.829082 21.530526,-16.351026" />
      <path d="M 14.473288,-17.40659 C 14.861536,-17.536511 15.466393,-17.928306 15.971054,-18.309399" />
      <path d="M 15.971054,-18.309399 C 17.680152,-18.527008 19.146879,-18.678542 20.300315,-18.624254 C 21.456777,-18.571848 22.30088,-18.312031 22.846413,-17.757745" />
      <path d="M 22.846413,-17.757745 C 23.217776,-17.382731 23.453781,-16.87351 23.578032,-16.221669" />
      <path d="M 15.971054,-18.309399 Q 16.238684,-18.72129 16.46536,-19.119881" />
      <path d="M 16.46536,-19.119881 C 17.479133,-19.234052 18.38786,-19.308031 19.173392,-19.305757" />
      <path d="M 19.173392,-19.305757 C 20.56873,-19.303751 21.568098,-19.054808 22.183369,-18.428319" />
      <path d="M 16.46536,-19.119881 C 16.345064,-19.230162 16.164339,-19.309341 15.937487,-19.30979" />
      <path d="M 15.937487,-19.30979 Q 15.781081,-19.311132 15.600955,-19.255554" />
      <path d="M 15.600955,-19.255554 C 15.560466,-19.241881 15.510516,-19.230058 15.47436,-19.232976" />
      <path d="M 15.47436,-19.232976 C 15.435206,-19.236135 15.412322,-19.256727 15.436446,-19.311295" />
      <path d="M 15.436446,-19.311295 L 15.69988,-19.282424" />
      <path d="M 15.436446,-19.311295 Q 15.566122,-19.592934 15.661136,-19.855971" />
      <path d="M 15.661136,-19.855971 C 16.441644,-19.734591 17.130457,-19.559294 17.721448,-19.307296" />
      <path d="M 15.661136,-19.855971 C 15.699913,-19.956938 15.876492,-20.098878 15.978261,-20.170193" />
      <path d="M 15.978261,-20.170192 L 15.978262,-20.170193" />
      <path d="M 15.978262,-20.170194 C 17.048182,-20.018401 17.927165,-19.74982 18.608126,-19.306625" />
      <path d="M 15.978262,-20.170193 C 16.450614,-20.508569 17.034424,-21.082455 17.478001,-21.574647" />
      <path d="M 17.478001,-21.574647 C 18.58194,-21.512413 19.394312,-21.251665 19.924059,-20.713313" />
      <path d="M 19.924059,-20.713313 C 20.29563,-20.338079 20.531483,-19.82877 20.65566,-19.177233" />
      <path d="M 17.478001,-21.574647 Q 17.544779,-21.887425 17.561407,-22.164609" />
      <path d="M 17.561407,-22.164609 C 18.293872,-22.042072 18.857963,-21.792394 19.260991,-21.383904" />
      <path d="M 17.561407,-22.164609 C 17.173575,-22.066723 16.639904,-21.847496 16.168537,-21.516081" />
      <path d="M 16.168537,-21.516081 C 16.078341,-21.451278 15.934537,-21.362018 15.890949,-21.384666" />
      <path d="M 15.890949,-21.384666 Q 15.88222,-21.38913 15.879429,-21.400039" />
      <path d="M 15.879429,-21.400039 L 15.913993,-21.381275" />
      <path d="M 15.879429,-21.400039 Q 15.84589,-21.571837 15.775804,-21.711699" />
      <path d="M 15.775804,-21.711699 Q 15.937126,-21.592274 16.084119,-21.459251" />
      <path d="M 15.775804,-21.711699 C 15.752325,-21.767204 15.900629,-21.941541 15.994525,-22.03943" />
      <path d="M 15.994525,-22.03943 L 15.994526,-22.039431" />
      <path d="M 15.994526,-22.039432 Q 16.210114,-21.86678 16.39579,-21.664766" />
      <path d="M 15.994526,-22.039431 C 16.424416,-22.495593 16.830747,-23.0978 17.094385,-23.569209" />
      <path d="M 17.094385,-23.569209 Q 17.567326,-23.025429 17.733268,-22.132813" />
      <path d="M 17.094385,-23.569209 Q 16.942418,-23.699064 16.744542,-23.78057" />
      <path d="M 16.744542,-23.78057 C 16.247084,-23.450427 15.630442,-22.975281 15.196426,-22.521614" />
      <path d="M 15.196426,-22.521614 C 15.103735,-22.422997 14.933527,-22.261892 14.860185,-22.264882" />
      <path d="M 14.860185,-22.264882 Q 14.672417,-22.280806 14.45601,-22.260017" />
      <path d="M 14.45601,-22.260017 Q 14.429866,-22.258936 14.424671,-22.278878" />
      <path d="M 14.424671,-22.278878 C 14.411554,-22.323779 14.470374,-22.436985 14.517721,-22.513442" />
      <path d="M 14.517722,-22.513442 L 14.517723,-22.513443" />
      <path d="M 14.517722,-22.513443 Q 14.547312,-22.393235 14.573901,-22.268729" />
      <path d="M 14.517723,-22.513443 C 14.789962,-22.965164 14.909938,-23.434329 14.922994,-23.758641" />
      <path d="M 14.922994,-23.758641 L 14.922688,-23.604442" />
      <path d="M 14.922994,-23.758641 Q 14.593002,-23.67078 14.233643,-23.534769" />
      <path d="M 14.233643,-23.534769 C 13.759853,-23.060829 13.225469,-22.457081 12.945098,-22.00272" />
      <path d="M 12.945098,-22.00272 C 12.886608,-21.905258 12.763158,-21.731218 12.651818,-21.67409" />
      <path d="M 12.651818,-21.67409 Q 12.360135,-21.529873 12.055393,-21.354003" />
      <path d="M 12.055393,-21.354003 C 11.965135,-21.303382 11.940461,-21.357391 11.939826,-21.41768" />
      <path d="M 11.939826,-21.41768 Q 11.939753,-21.442045 11.943559,-21.465217" />
      <path d="M 11.943559,-21.465218 L 11.943738,-21.381687" />
      <path d="M 11.94356,-21.465218 Q 11.948787,-21.505843 11.949155,-21.544199" />
      <path d="M 11.949155,-21.544199 C 11.951612,-21.826183 11.766697,-22.009113 11.545652,-22.092187" />
      <path d="M 11.545652,-22.092187 Q 11.126056,-21.810151 10.701504,-21.493067" />
      <path d="M 10.701504,-21.493067 C 10.378333,-21.002324 10.069394,-20.431746 10.017793,-20.098437" />
      <path d="M 10.017793,-20.098437 C 10.009178,-20.028244 9.965563,-19.887904 9.84606,-19.785965" />
      <path d="M 9.84606,-19.785965 Q 9.528617,-19.52025 9.217196,-19.236423" />
      <path d="M 9.217196,-19.236423 C 9.098976,-19.130626 9.002687,-19.148708 8.961782,-19.175626" />
      <path d="M 8.961782,-19.175627 C 8.761669,-19.288973 8.297835,-19.184252 7.867315,-19.016371" />
      <path d="M 12.705618,-1.051123 Q 13.428162,-0.382517 14.245743,0.180182" />
      <path d="M 7.867315,-19.016371 Q 7.470544,-18.615732 7.094558,-18.202537" />
      <path d="M 14.245743,0.180182 Q 14.472419,0.229121 14.740049,0.22819" />
      <path d="M 12.665033,-1.179763 Q 13.630841,-0.390226 14.740049,0.22819" />
      <path d="M 7.094558,-18.202537 Q 7.042774,-17.978188 7.039206,-17.775168" />
      <path d="M 7.039206,-17.775168 C 7.036989,-17.567081 7.082479,-17.393302 7.198882,-17.319016" />
      <path d="M 14.740049,0.22819 C 15.070879,-0.032486 15.440313,-0.350696 15.768239,-0.673667" />
      <path d="M 7.198882,-17.319016 L 7.212742,-17.13074" />
      <path d="M 7.198882,-17.319016 C 7.222067,-17.306149 7.246308,-17.280788 7.249796,-17.241858" />
      <path d="M 7.249796,-17.241858 Q 7.258237,-17.190307 7.194711,-17.106428" />
      <path d="M 10.438204,0.507804 Q 10.67397,0.948107 10.874349,1.401874" />
      <path d="M 10.578533,0.390632 C 10.682559,0.724704 10.781216,1.061817 10.874349,1.401874" />
      <path d="M 1.797175,-14.563036 C 2.118146,-14.840051 2.470802,-15.09414 2.828598,-15.318435" />
      <path d="M 10.874349,1.401874 C 11.659432,1.349334 12.525114,1.462042 13.306333,1.650684" />
      <path d="M 2.828598,-15.318435 C 3.398635,-14.846313 3.953613,-14.351217 4.49198,-13.834281" />
      <path d="M 12.107384,-2.272385 C 12.585782,-1.006568 12.988023,0.303012 13.306333,1.650684" />
      <path d="M 2.828598,-15.318435 Q 3.365149,-15.129771 3.886881,-14.91108" />
      <path d="M 13.306333,1.650684 Q 13.481419,2.13673 13.620819,2.631698" />
      <path d="M 3.886881,-14.91108 C 4.057785,-14.755669 4.227092,-14.598161 4.394758,-14.43859" />
      <path d="M 12.345169,-2.133412 C 12.886662,-0.600203 13.316064,0.991702 13.620819,2.631698" />
      <path d="M 13.620819,2.631698 C 13.067521,3.15404 12.397225,3.650825 11.69748,3.96957" />
      <path d="M 11.69748,3.96957 Q 11.796182,4.448763 11.856756,4.932873" />
      <path d="M 11.76138,3.93994 C 11.798484,4.269445 11.830307,4.600457 11.856756,4.932873" />
      <path d="M 11.856756,4.932873 C 12.630485,5.061582 13.433641,5.368332 14.132959,5.729123" />
      <path d="M 13.278587,-0.549869 C 13.766601,1.483303 14.05793,3.585101 14.132959,5.729123" />
      <path d="M 14.132959,5.729123 Q 14.152033,6.09326 14.152159,6.457863" />
      <path d="M 14.152159,6.457863 L 14.149242,6.748596" />
      <path d="M 13.422778,-0.432348 C 13.901474,1.75768 14.151667,4.018122 14.152121,6.315095" />
      <path d="M 14.149242,6.748596 C 13.461725,7.126664 12.668686,7.4533 11.899375,7.601233" />
      <path d="M 11.899375,7.601233 Q 11.854286,8.08666 11.770927,8.56812" />
      <path d="M 11.770927,8.56812 C 12.480574,8.869308 13.166469,9.349196 13.736229,9.857547" />
      <path d="M 13.768398,-0.163515 C 14.022797,1.454251 14.152233,3.096007 14.152181,4.747411" />
      <path d="M 14.152181,4.747411 C 14.152173,5.009566 14.148901,5.271965 14.142349,5.534549" />
      <path d="M 14.086488,6.782785 C 14.020317,7.807396 13.90392,8.833447 13.736229,9.857547" />
      <path d="M 13.736229,9.857547 Q 13.612692,10.355791 13.453199,10.846005" />
      <path d="M 13.853378,-0.100065 C 14.051799,1.332897 14.152147,2.781187 14.152181,4.234781" />
      <path d="M 13.453199,10.846005 C 12.678316,11.054033 11.816578,11.188262 11.030129,11.155301" />
      <path d="M 11.030129,11.155301 Q 10.844322,11.61388 10.622711,12.059881" />
      <path d="M 10.622711,12.059881 C 11.219914,12.51302 11.741807,13.133343 12.143179,13.754611" />
      <path d="M 14.042956,0.037894 C 14.115804,0.912005 14.152165,1.787944 14.152147,2.663466" />
      <path d="M 14.152147,2.663466 C 14.152141,2.925218 14.148885,3.186933 14.142379,3.44855" />
      <path d="M 13.047804,10.945996 C 12.790894,11.892617 12.489303,12.829855 12.143179,13.754611" />
      <path d="M 12.143179,13.754611 Q 11.877841,14.207639 11.580126,14.644691" />
      <path d="M 14.08333,0.066651 C 14.129298,0.761949 14.152192,1.457619 14.152164,2.152548" />
      <path d="M 11.580126,14.644691 C 10.770683,14.668504 9.898972,14.601178 9.14898,14.389568" />
      <path d="M 9.14898,14.389568 Q 8.835117,14.790049 8.490357,15.170196" />
      <path d="M 8.490357,15.170196 C 8.934418,15.744407 9.256741,16.46289 9.462375,17.154737" />
      <path d="M 14.148688,0.112749 C 14.150979,0.267659 14.152129,0.422468 14.152144,0.577165" />
      <path d="M 14.152144,0.577165 C 14.152168,0.840209 14.148908,1.102928 14.142387,1.365265" />
      <path d="M 10.854899,14.640709 C 10.429454,15.498537 9.964879,16.337497 9.462375,17.154737" />
      <path d="M 9.462375,17.154737 Q 9.073318,17.531677 8.657668,17.885783" />
      <path d="M 8.657668,17.885783 C 7.868828,17.723757 7.04655,17.459464 6.384126,17.083627" />
      <path d="M 6.384126,17.083627 Q 5.963596,17.398717 5.519181,17.687103" />
      <path d="M 5.519181,17.687103 C 5.779838,18.343255 5.880627,19.110934 5.876507,19.826213" />
      <path d="M 7.702177,17.640046 C 7.125923,18.397748 6.5166,19.127337 5.876507,19.826213" />
      <path d="M 5.876507,19.826213 Q 5.390244,20.101375 4.884986,20.348404" />
      <path d="M 4.884986,20.348404 C 4.170507,20.011581 3.453699,19.568332 2.923986,19.05388" />
      <path d="M 2.923986,19.05388 Q 2.425448,19.262106 1.911664,19.439079" />
      <path d="M 1.911664,19.439079 C 1.971154,20.132456 1.843539,20.897016 1.629947,21.58698" />
      <path d="M 3.838332,19.769796 C 3.12667,20.414253 2.389323,21.020736 1.629947,21.58698" />
      <path d="M 1.629947,21.58698 Q 1.079617,21.741614 0.519183,21.86473" />
      <path d="M 0.519183,21.86473 C -0.072245,21.376064 -0.634734,20.784066 -0.995637,20.166059" />
      <path d="M -0.995637,20.166059 Q -1.538208,20.253231 -2.086347,20.30673" />
      <path d="M -2.086347,20.30673 C -2.232079,20.990079 -2.579401,21.699417 -2.987909,22.317046" />
      <path d="M -0.451034,20.920576 C -1.282825,21.435816 -2.130288,21.901859 -2.987909,22.317046" />
      <path d="M -2.987909,22.317046 Q -3.564803,22.340613 -4.142219,22.331427" />
      <path d="M -4.142219,22.331427 C -4.570291,21.72422 -4.940128,21.023817 -5.107627,20.34437" />
      <path d="M -5.107627,20.34437 Q -5.657256,20.304548 -6.202395,20.230927" />
      <path d="M -6.202395,20.230927 C -6.543418,20.857679 -7.086776,21.463454 -7.662362,21.966659" />
      <path d="M -4.865792,21.05543 C -5.799766,21.42171 -6.734701,21.725592 -7.662362,21.966659" />
      <path d="M -7.662362,21.966659 Q -8.226505,21.857553 -8.781554,21.71669" />
      <path d="M -8.781554,21.71669 C -9.017097,21.032322 -9.169079,20.271245 -9.131758,19.576662" />
      <path d="M -9.131758,19.576662 Q -9.650989,19.412559 -10.155978,19.216835" />
      <path d="M -10.155978,19.216835 C -10.669051,19.744278 -11.371418,20.205208 -12.074855,20.559696" />
      <path d="M -9.117528,20.211199 C -10.129113,20.404464 -11.118986,20.519892 -12.074855,20.559696" />
      <path d="M -12.074855,20.559696 Q -12.587802,20.325352 -13.082659,20.062413" />
      <path d="M -13.082659,20.062413 C -13.109621,19.347522 -13.03339,18.577637 -12.793793,17.915253" />
      <path d="M -12.793793,17.915253 Q -13.247241,17.638052 -13.677666,17.333564" />
      <path d="M -13.677666,17.333564 C -14.327824,17.725754 -15.141334,18.010426 -15.924685,18.192039" />
      <path d="M -12.957529,18.491376 C -14.009809,18.483841 -15.004922,18.381479 -15.924685,18.192039" />
      <path d="M -15.924685,18.192039 Q -16.351479,17.848428 -16.752419,17.481331" />
      <path d="M -16.752419,17.481331 C -16.568964,16.784636 -16.269715,16.05841 -15.84417,15.473364" />
      <path d="M -15.84417,15.473364 Q -16.200933,15.101957 -16.527462,14.709455" />
      <path d="M -16.527462,14.709455 C -17.270397,14.939664 -18.139611,15.02868 -18.949492,15.025041" />
      <path d="M -16.20123,16.048168 C -17.23756,15.811368 -18.162305,15.464022 -18.949492,15.025041" />
      <path d="M -18.949492,15.025041 Q -19.261047,14.595579 -19.540748,14.149341" />
      <path d="M -19.540748,14.149341 C -19.159377,13.518321 -18.657504,12.885245 -18.07501,12.417408" />
      <path d="M -18.07501,12.417408 Q -18.310777,11.977105 -18.511156,11.523337" />
      <path d="M -18.511156,11.523337 C -19.296239,11.575877 -20.161921,11.463169 -20.94314,11.274527" />
      <path d="M -18.739118,13.05455 C -19.675994,12.566483 -20.422037,11.959881 -20.94314,11.274527" />
      <path d="M -20.94314,11.274527 Q -21.118226,10.788482 -21.257625,10.293513" />
      <path d="M -21.257625,10.293513 C -20.704328,9.771171 -20.034032,9.274387 -19.334287,8.955641" />
      <path d="M -19.334287,8.955641 Q -19.432989,8.476448 -19.493563,7.992338" />
      <path d="M -19.493563,7.992338 C -20.267292,7.863629 -21.070448,7.556879 -21.769766,7.196089" />
      <path d="M -20.524687,9.674863 C -21.248898,8.931628 -21.676488,8.080488 -21.769766,7.196089" />
      <path d="M -21.769766,7.196089 Q -21.789088,6.827211 -21.788965,6.457863" />
      <path d="M -21.788965,6.457863 L -21.786048,6.176615" />
      <path d="M -21.788928,6.317851 C -21.788919,6.27082 -21.78796,6.223738 -21.786048,6.176615" />
      <path d="M -21.786048,6.176615 C -21.098531,5.798547 -20.305492,5.471911 -19.536182,5.323978" />
      <path d="M -19.536182,5.323978 Q -19.491092,4.838552 -19.407734,4.357091" />
      <path d="M -19.588957,5.255243 C -19.588981,4.955274 -19.529209,4.653631 -19.407734,4.357091" />
      <path d="M -19.407734,4.357091 C -20.117381,4.055904 -20.803276,3.576016 -21.373035,3.067665" />
      <path d="M -21.542272,6.047119 C -21.705962,5.622679 -21.788974,5.185816 -21.788988,4.74697" />
      <path d="M -21.788988,4.74697 C -21.789005,4.183096 -21.651996,3.615947 -21.373035,3.067665" />
      <path d="M -21.373035,3.067665 Q -21.249499,2.569421 -21.090006,2.079207" />
      <path d="M -21.788988,4.235117 C -21.788971,3.503821 -21.558574,2.768767 -21.090006,2.079207" />
      <path d="M -21.090006,2.079207 C -20.315123,1.871178 -19.453385,1.736949 -18.666936,1.769911" />
      <path d="M -18.666936,1.769911 Q -18.481128,1.311332 -18.259518,0.865331" />
      <path d="M -19.136003,1.769057 C -18.920772,1.449801 -18.628705,1.14507 -18.259518,0.865331" />
      <path d="M -18.259518,0.865331 C -18.856721,0.412191 -19.378613,-0.208131 -19.779986,-0.8294" />
      <path d="M -21.699748,3.449271 C -21.75924,3.188692 -21.788948,2.925886 -21.788954,2.66318" />
      <path d="M -21.788954,2.66318 C -21.788979,1.413124 -21.116453,0.165344 -19.779986,-0.8294" />
      <path d="M -19.779986,-0.8294 Q -19.514648,-1.282428 -19.216933,-1.71948" />
      <path d="M -21.788971,2.151975 C -21.789029,0.731119 -20.919874,-0.681305 -19.216933,-1.71948" />
      <path d="M -19.216933,-1.71948 C -18.40749,-1.743293 -17.535779,-1.675967 -16.785787,-1.464357" />
      <path d="M -16.785787,-1.464357 Q -16.471924,-1.864837 -16.127164,-2.244984" />
      <path d="M -17.612662,-1.636175 C -17.18425,-1.872759 -16.688369,-2.078876 -16.127164,-2.244984" />
      <path d="M -16.127164,-2.244984 C -16.571225,-2.819196 -16.893548,-3.537679 -17.099181,-4.229526" />
      <path d="M -21.699671,1.365223 C -21.759427,1.10342 -21.788975,0.840452 -21.788951,0.578474" />
      <path d="M -21.788951,0.578474 C -21.788769,-1.379268 -20.137119,-3.281719 -17.099181,-4.229526" />
      <path d="M -17.099181,-4.229526 Q -16.710124,-4.606465 -16.294475,-4.960571" />
      <path d="M -21.788906,0.067243 C -21.788782,-2.071486 -19.820457,-4.124667 -16.294475,-4.960571" />
      <path d="M -16.294475,-4.960571 C -15.505634,-4.798545 -14.683357,-4.534252 -14.020932,-4.158415" />
      <path d="M -14.020932,-4.158415 Q -13.600403,-4.473505 -13.155988,-4.761891" />
      <path d="M -14.977646,-4.5927 C -14.415124,-4.68831 -13.806835,-4.746838 -13.155988,-4.761891" />
      <path d="M -21.113876,-2.052852 Q -21.401094,-2.232602 -21.665932,-2.426697" />
      <path d="M -13.155988,-4.761891 C -13.416645,-5.418043 -13.517433,-6.185723 -13.513314,-6.901001" />
      <path d="M -21.665932,-2.426697 C -21.036172,-4.766012 -18.046318,-6.718291 -13.513314,-6.901001" />
      <path d="M -21.665932,-2.426697 Q -21.598464,-2.933254 -21.49432,-3.434943" />
      <path d="M -13.513314,-6.901001 Q -13.027051,-7.176163 -12.521793,-7.423192" />
      <path d="M -21.49432,-3.434943 C -20.522533,-5.728802 -17.231989,-7.502828 -12.521793,-7.423192" />
      <path d="M -12.521793,-7.423192 C -11.807314,-7.086369 -11.090506,-6.64312 -10.560792,-6.128669" />
      <path d="M -10.560792,-6.128669 Q -10.062255,-6.336895 -9.548471,-6.513867" />
      <path d="M -11.377871,-6.780461 C -10.79056,-6.725932 -10.179847,-6.638147 -9.548471,-6.513867" />
      <path d="M -19.698409,-5.568019 C -19.996858,-5.841863 -20.271129,-6.140436 -20.514466,-6.443218" />
      <path d="M -9.548471,-6.513867 C -9.607961,-7.207244 -9.480346,-7.971805 -9.266754,-8.661769" />
      <path d="M -20.514466,-6.443218 C -18.522202,-8.47766 -14.397267,-9.602675 -9.266754,-8.661769" />
      <path d="M -20.514466,-6.443218 Q -20.300849,-6.917093 -20.053234,-7.377881" />
      <path d="M -9.266754,-8.661769 Q -8.716424,-8.816402 -8.15599,-8.939519" />
      <path d="M -20.053234,-7.377881 C -17.743918,-9.290234 -13.380777,-10.174335 -8.15599,-8.939519" />
      <path d="M -8.15599,-8.939519 C -7.564562,-8.450853 -7.002073,-7.858855 -6.64117,-7.240848" />
      <path d="M -6.64117,-7.240848 Q -6.098599,-7.32802 -5.55046,-7.381518" />
      <path d="M -7.169038,-7.975742 C -6.637279,-7.803149 -6.097148,-7.605524 -5.55046,-7.381518" />
      <path d="M -17.521599,-8.767572 C -17.805024,-9.1738 -18.040138,-9.619401 -18.22519,-10.059671" />
      <path d="M -5.55046,-7.381518 C -5.404727,-8.064867 -5.057406,-8.774205 -4.648898,-9.391835" />
      <path d="M -18.22519,-10.059671 C -15.006193,-11.488179 -10.027284,-11.554653 -4.648898,-9.391835" />
      <path d="M -18.22519,-10.059671 Q -17.879984,-10.468569 -17.505771,-10.857055" />
      <path d="M -4.648898,-9.391835 Q -4.072004,-9.415402 -3.494588,-9.406216" />
      <path d="M -17.505771,-10.857055 C -14.016303,-12.095159 -8.877905,-11.874479 -3.494588,-9.406216" />
      <path d="M -3.494588,-9.406216 C -3.066516,-8.799008 -2.696679,-8.098605 -2.52918,-7.419159" />
      <path d="M -2.52918,-7.419159 Q -1.979551,-7.379337 -1.434412,-7.305715" />
      <path d="M -2.761757,-8.108429 C -2.319418,-7.858416 -1.876603,-7.591006 -1.434412,-7.305715" />
      <path d="M -14.610257,-11.498824 C -14.790198,-11.990973 -14.899962,-12.520297 -14.954117,-13.029599" />
      <path d="M -1.434412,-7.305715 C -1.093389,-7.932467 -0.550031,-8.538242 0.025555,-9.041447" />
      <path d="M -14.954117,-13.029599 C -10.727754,-13.592406 -5.234176,-12.441202 0.025555,-9.041447" />
      <path d="M -14.954117,-13.029599 Q -14.500844,-13.345656 -14.025537,-13.635364" />
      <path d="M 0.025555,-9.041447 Q 0.589698,-8.932341 1.144747,-8.791479" />
      <path d="M -14.025537,-13.635364 C -9.593717,-13.952429 -4.030236,-12.487398 1.144747,-8.791479" />
      <path d="M 1.144747,-8.791479 C 1.38029,-8.107111 1.532272,-7.346033 1.494951,-6.651451" />
      <path d="M 1.494951,-6.651451 Q 2.014182,-6.487348 2.519172,-6.291624" />
      <path d="M 1.486741,-7.214665 C 1.834275,-6.918761 2.178638,-6.611123 2.519172,-6.291624" />
      <path d="M -11.040404,-13.589748 C -11.07043,-14.107373 -11.021332,-14.645097 -10.924162,-15.150608" />
      <path d="M 2.519172,-6.291624 C 3.032244,-6.819067 3.734611,-7.279996 4.438049,-7.634484" />
      <path d="M -10.924162,-15.150608 C -5.978454,-14.646941 -0.344586,-12.201905 4.438049,-7.634484" />
      <path d="M -10.924162,-15.150608 Q -10.393714,-15.352283 -9.849703,-15.523472" />
      <path d="M 4.438049,-7.634484 Q 4.950995,-7.400141 5.445852,-7.137202" />
      <path d="M -9.849703,-15.523472 C -4.777554,-14.735472 0.831869,-11.971322 5.445852,-7.137202" />
      <path d="M 5.445852,-7.137202 C 5.472814,-6.422311 5.396583,-5.652426 5.156986,-4.990041" />
      <path d="M 5.156986,-4.990041 Q 5.610434,-4.712841 6.040859,-4.408353" />
      <path d="M 5.280364,-5.39407 C 5.538702,-5.073282 5.792334,-4.744705 6.040859,-4.408353" />
      <path d="M -6.960355,-14.874202 C -6.836027,-15.355469 -6.639696,-15.835689 -6.409962,-16.278154" />
      <path d="M 6.040859,-4.408353 C 6.691017,-4.800542 7.504527,-5.085215 8.287879,-5.266828" />
      <path d="M -6.409962,-16.278154 C -2.874252,-15.151193 0.688853,-13.130879 3.848941,-10.266666" />
      <path d="M 5.447026,-8.708386 C 6.452683,-7.653948 7.404995,-6.506146 8.287879,-5.266828" />
      <path d="M -6.409962,-16.278154 Q -5.838488,-16.351705 -5.262847,-16.392706" />
      <path d="M 8.287879,-5.266828 Q 8.714672,-4.923217 9.115613,-4.55612" />
      <path d="M -5.262847,-16.392706 C -2.017454,-15.182201 1.193665,-13.230199 4.051898,-10.59241" />
      <path d="M 6.523071,-8.031666 C 7.447939,-6.955861 8.316805,-5.796527 9.115613,-4.55612" />
      <path d="M 9.115613,-4.55612 C 8.932157,-3.859425 8.632908,-3.133198 8.207363,-2.548153" />
      <path d="M 8.207363,-2.548153 Q 8.564127,-2.176746 8.890655,-1.784244" />
      <path d="M 8.374699,-2.795336 C 8.552026,-2.463316 8.724095,-2.126262 8.890655,-1.784244" />
      <path d="M -2.590277,-15.222169 C -2.341528,-15.616511 -2.039202,-15.994122 -1.719152,-16.335397" />
      <path d="M 8.890655,-1.784244 C 9.63359,-2.014453 10.502804,-2.103468 11.312685,-2.09983" />
      <path d="M -1.719152,-16.335397 C 0.185377,-15.288435 2.017853,-13.991587 3.719271,-12.467096" />
      <path d="M 9.913313,-4.820394 C 10.417534,-3.946543 10.885377,-3.039166 11.312685,-2.09983" />
      <path d="M -1.719152,-16.335397 Q -1.145596,-16.27581 -0.577554,-16.183831" />
      <path d="M 11.312685,-2.09983 Q 11.624241,-1.670368 11.903942,-1.22413" />
      <path d="M -0.577554,-16.183831 C 1.020874,-15.205424 2.553859,-14.050888 3.987009,-12.735757" />
      <path d="M 10.312864,-4.618392 C 10.902061,-3.533422 11.434845,-2.400906 11.903942,-1.22413" />
      <path d="M 11.903942,-1.22413 C 11.52257,-0.59311 11.020697,0.039967 10.438204,0.507804" />
      <path d="M 20.529746,-2.623348 L 20.360075,-2.623748" />
      <path d="M 22.85146,-5.573311 C 22.383225,-5.573836 21.911758,-5.574223 21.437056,-5.574472 C 20.839286,-5.574983 20.24567,-5.575735 19.656207,-5.57673 C 18.914595,-5.578156 18.201923,-5.577673 17.437927,-5.57932" />
      <path d="M 20.384604,-8.528026 C 19.770161,-8.529173 19.148833,-8.529846 18.520619,-8.530044 C 17.922276,-8.530571 17.328078,-8.531331 16.738025,-8.532324 C 15.995017,-8.533751 15.281106,-8.533244 14.515709,-8.53488" />
      <path d="M 26.677216,-10.44039 Q 26.197299,-10.440996 25.717382,-10.441601 Q 24.790713,-10.442733 23.864043,-10.443865 Q 22.980916,-10.444092 22.076989,-10.445847" />
      <path d="M 17.462395,-11.483597 C 16.847894,-11.484729 16.226501,-11.485396 15.598214,-11.485599 C 14.999814,-11.486132 14.405565,-11.486904 13.815467,-11.487914 C 13.07257,-11.489359 12.358835,-11.488857 11.593592,-11.490466" />
      <path d="M 25.018089,-13.394567 C 24.290833,-13.396088 23.527449,-13.395718 22.773058,-13.397196 C 22.152841,-13.398257 21.531688,-13.399023 20.909599,-13.399492 C 20.331382,-13.399638 19.746438,-13.400281 19.154765,-13.401423" />
      <path d="M 12.114541,-14.44173 C 12.928061,-14.440581 13.744436,-14.441045 14.540094,-14.439198" />
      <path d="M 25.768807,-14.802135 L 25.105748,-15.472724" />
      <path d="M 22.095818,-16.350158 C 21.368519,-16.351661 20.605123,-16.351268 19.850712,-16.352748 C 19.230454,-16.353812 18.60925,-16.354588 17.9871,-16.355074 C 17.408933,-16.355235 16.824038,-16.355885 16.232416,-16.357024" />
      <path d="M 22.846413,-17.757745 L 22.183369,-18.428319" />
      <path d="M 15.937487,-19.30979 Q 16.902091,-19.308476 17.866694,-19.307162 Q 18.532091,-19.306934 19.173392,-19.305757" />
      <path d="M 19.924059,-20.713313 L 19.260991,-21.383904" />
      <path d="M 14.909141,-22.278327 Q 14.916552,-22.953575 14.922688,-23.604442" />
      <path d="M 11.949154,-21.544199 L 11.947365,-21.369467" />
      <path d="M 7.039206,-17.775168 L 7.030091,-16.901923" />
      <path d="M 14.152159,6.457863 L 14.152121,6.315095" />
      <path d="M 14.152181,4.747411 L 14.152181,4.234781" />
      <path d="M 14.152147,2.663466 L 14.152164,2.152548" />
      <path d="M 14.152144,0.577165 L 14.152102,0.115141" />
      <path d="M -21.788965,6.457863 L -21.788928,6.317851" />
      <path d="M -19.588951,5.334391 L -19.588957,5.255243" />
      <path d="M -21.788988,4.74697 L -21.788988,4.235117" />
      <path d="M -21.788954,2.66318 L -21.788971,2.151975" />
      <path d="M -21.788951,0.578474 L -21.788906,0.067243" />
    </g>
  </g>
</svg>