<?xml version='1.0' encoding='utf-8'?>
<svg width="100.09mm" height="41.40459mm" viewBox="-42.474223 -18.79669 87.39631 36.153546" version="1.1" xmlns="http://www.w3.org/2000/svg">
  <g transform="scale(1,-1)" stroke-linecap="round">
    <g fill="none" stroke="rgb(0,0,0)" stroke-width="0.07858595164252564" id="Visible">
      <path d="M 19.043256,-1.151091 Q 18.934086,-1.849427 18.923216,-2.555459" />
      <path d="M 18.923216,-2.555459 C 18.915762,-2.671984 18.680631,-2.71394 18.584114,-2.722227" />
      <path d="M 18.584114,-2.722227 C 18.288088,-2.758158 17.948429,-2.864388 17.609737,-3.017634 C 17.270273,-3.170855 16.932834,-3.369069 16.618629,-3.589165 C 16.303986,-3.810904 16.010707,-4.050756 15.738792,-4.308719 C 15.465873,-4.56645 15.212934,-4.838488 14.961277,-5.141109" />
      <line x1="14.961277" y1="-5.431091" x2="14.961277" y2="-5.141109" />
      <path d="M 14.961277,-5.431091 L 15.002015,-5.650465" />
      <path d="M 14.961277,-5.141109 Q 14.991674,-5.312413 15.026344,-5.482971" />
      <line x1="15.026344" y1="-5.677707" x2="15.026344" y2="-5.482971" />
      <path d="M 15.180589,-5.859543 C 15.508844,-6.041009 15.84134,-6.200638 16.178075,-6.338431 C 16.517441,-6.477876 16.869078,-6.594316 17.232986,-6.687752 C 17.595664,-6.779815 17.969818,-6.844676 18.328647,-6.869338 C 18.686881,-6.894264 19.028254,-6.877705 19.3077,-6.813926" />
      <path d="M 15.026344,-5.482971 C 15.373335,-5.681232 15.710257,-5.850442 16.060605,-5.999521 C 16.410099,-6.149156 16.772911,-6.274634 17.149043,-6.375953 C 17.524158,-6.475882 17.912954,-6.547494 18.287067,-6.57632 C 18.660466,-6.60543 19.017449,-6.590217 19.3077,-6.523944" />
      <line x1="19.3077" y1="-6.813926" x2="19.3077" y2="-6.523944" />
      <path d="M 19.3077,-6.813926 C 19.401071,-6.789111 19.636558,-6.749026 19.686465,-6.855551" />
      <path d="M 19.3077,-6.523944 C 19.401071,-6.499128 19.636558,-6.459043 19.686465,-6.565569" />
      <line x1="19.686465" y1="-6.855551" x2="19.686465" y2="-6.565569" />
      <path d="M 19.686465,-6.855551 Q 19.93311,-7.455122 20.25437,-8.021663" />
      <path d="M 19.686465,-6.565569 Q 19.956766,-7.222585 20.316218,-7.839229" />
      <line x1="20.316218" y1="-7.928662" x2="20.316218" y2="-7.839229" />
      <path d="M 20.316218,-7.839229 Q 20.326504,-7.859063 20.326328,-7.880733" />
      <path d="M 20.326328,-7.880733 C 20.325912,-7.980175 20.179078,-8.099157 20.109675,-8.14592" />
      <path d="M 20.109675,-8.14592 C 19.872081,-8.31869 19.633427,-8.57322 19.420175,-8.868004 C 19.20624,-9.163136 19.017566,-9.496265 18.860446,-9.837225 C 18.703804,-10.179819 18.575127,-10.527875 18.474415,-10.881394 C 18.372711,-11.235191 18.295785,-11.591819 18.235948,-11.974318" />
      <line x1="18.235948" y1="-12.2643" x2="18.235948" y2="-11.974318" />
      <path d="M 18.235948,-12.2643 Q 18.35177,-12.398108 18.470903,-12.529226" />
      <path d="M 18.235948,-11.974318 Q 18.35177,-12.108126 18.470903,-12.239244" />
      <line x1="18.470903" y1="-12.529226" x2="18.470903" y2="-12.239244" />
      <path d="M 18.470903,-12.529226 C 18.874987,-12.534885 19.255173,-12.520202 19.636469,-12.481661 C 20.017317,-12.444011 20.397077,-12.379066 20.775751,-12.286826 C 21.152818,-12.193869 21.526939,-12.069842 21.86599,-11.915786 C 22.204572,-11.762319 22.50578,-11.578322 22.72252,-11.382038" />
      <path d="M 18.470903,-12.239244 C 18.874987,-12.244902 19.255173,-12.230219 19.636469,-12.191679 C 20.017317,-12.154028 20.397077,-12.089083 20.775751,-11.996843 C 21.152818,-11.903886 21.526939,-11.779859 21.86599,-11.625804 C 22.204572,-11.472336 22.50578,-11.288339 22.72252,-11.092055" />
      <line x1="22.72252" y1="-11.382038" x2="22.72252" y2="-11.092055" />
      <path d="M 22.72252,-11.382038 C 22.790417,-11.315868 22.973413,-11.168468 23.072288,-11.236841" />
      <path d="M 22.72252,-11.092055 C 22.790417,-11.025885 22.973413,-10.878486 23.072288,-10.946858" />
      <line x1="23.072288" y1="-11.236841" x2="23.072288" y2="-10.946858" />
      <path d="M 23.072288,-11.236841 Q 23.649633,-11.676491 24.283091,-12.038516" />
      <path d="M 23.072288,-10.946858 Q 23.649633,-11.386508 24.283091,-11.748533" />
      <line x1="24.283091" y1="-12.038516" x2="24.283091" y2="-11.748533" />
      <path d="M 24.283091,-12.038516 L 24.293038,-12.045678" />
      <path d="M 24.283091,-11.748533 Q 24.335273,-11.786129 24.332712,-11.863006" />
      <path d="M 24.332712,-11.863006 C 24.332644,-11.950959 24.290779,-12.058589 24.26445,-12.11297" />
      <path d="M 24.026635,-13.786532 C 24.026788,-14.270492 24.09054,-14.761208 24.196254,-15.228658 C 24.30298,-15.698832 24.449284,-16.146405 24.641896,-16.615051" />
      <path d="M 24.26445,-12.11297 C 24.103021,-12.479841 24.025635,-12.982792 24.026635,-13.49655" />
      <path d="M 24.026635,-13.49655 C 24.026788,-13.98051 24.09054,-14.471226 24.196254,-14.938675 C 24.30298,-15.408849 24.449284,-15.856423 24.641896,-16.325068" />
      <line x1="24.641896" y1="-16.615051" x2="24.641896" y2="-16.325068" />
      <path d="M 24.641896,-16.615051 Q 24.812109,-16.675509 24.983784,-16.732053" />
      <path d="M 24.641896,-16.325068 Q 24.812109,-16.385527 24.983784,-16.442071" />
      <line x1="24.983784" y1="-16.732053" x2="24.983784" y2="-16.442071" />
      <path d="M 24.983784,-16.732053 C 25.336687,-16.543593 25.658267,-16.348952 25.968343,-16.133119 C 26.278496,-15.918271 26.573448,-15.680306 26.853198,-15.419222 C 27.131183,-15.158286 27.390383,-14.871853 27.603524,-14.576195 C 27.816566,-14.281272 27.98129,-13.977793 28.066445,-13.704092" />
      <path d="M 24.983784,-16.442071 C 25.336687,-16.253611 25.658267,-16.05897 25.968343,-15.843136 C 26.278496,-15.628289 26.573448,-15.390323 26.853198,-15.12924 C 27.131183,-14.868303 27.390383,-14.58187 27.603524,-14.286213 C 27.816566,-13.991289 27.98129,-13.68781 28.066445,-13.41411" />
      <line x1="28.066445" y1="-13.704092" x2="28.066445" y2="-13.41411" />
      <path d="M 28.066445,-13.704092 C 28.090675,-13.614298 28.172145,-13.399079 28.293495,-13.410979" />
      <path d="M 28.066445,-13.41411 C 28.090675,-13.324315 28.172145,-13.109097 28.293495,-13.120996" />
      <line x1="28.293495" y1="-13.410979" x2="28.293495" y2="-13.120996" />
      <path d="M 28.293495,-13.410979 Q 29.023184,-13.515458 29.760915,-13.525861" />
      <path d="M 28.293495,-13.120996 Q 29.023184,-13.225475 29.760915,-13.235878" />
      <line x1="29.760915" y1="-13.525861" x2="29.760915" y2="-13.235878" />
      <path d="M 29.760915,-13.525861 C 29.882672,-13.532994 29.926512,-13.758022 29.935171,-13.850392" />
      <path d="M 29.760915,-13.235878 C 29.882672,-13.243011 29.926512,-13.46804 29.935171,-13.560409" />
      <line x1="29.935171" y1="-13.850392" x2="29.935171" y2="-13.560409" />
      <path d="M 29.935171,-13.850392 C 29.972715,-14.133698 30.083714,-14.458763 30.24384,-14.782902 C 30.40394,-15.10778 30.611054,-15.43072 30.841032,-15.731423 C 31.072726,-16.032547 31.323347,-16.313224 31.592892,-16.573456 C 31.862194,-16.834648 32.146446,-17.076719 32.462654,-17.317563" />
      <path d="M 29.935171,-13.560409 C 29.972715,-13.843716 30.083714,-14.168781 30.24384,-14.492919 C 30.40394,-14.817797 30.611054,-15.140737 30.841032,-15.441441 C 31.072726,-15.742565 31.323347,-16.023242 31.592892,-16.283473 C 31.862194,-16.544665 32.146446,-16.786736 32.462654,-17.02758" />
      <line x1="32.462654" y1="-17.317563" x2="32.462654" y2="-17.02758" />
      <path d="M 32.462654,-17.317563 Q 32.641648,-17.288472 32.819865,-17.255291" />
      <path d="M 32.462654,-17.02758 Q 32.641648,-16.998489 32.819865,-16.965309" />
      <line x1="32.819865" y1="-17.255291" x2="32.819865" y2="-16.965309" />
      <path d="M 32.819865,-17.255291 C 33.161996,-16.706145 33.429448,-16.17241 33.636786,-15.585594 C 33.841365,-15.005644 33.977118,-14.368225 33.977046,-13.796146" />
      <path d="M 32.819865,-16.965309 C 33.161996,-16.416162 33.429448,-15.882427 33.636786,-15.295612 C 33.841365,-14.715662 33.977118,-14.078242 33.977046,-13.506163" />
      <path d="M 33.977046,-13.506163 Q 33.977471,-13.154238 33.907574,-12.867915" />
      <path d="M 33.900966,-12.843377 Q 33.917681,-12.810302 33.951068,-12.795407" />
      <path d="M 33.907574,-12.867915 C 33.894587,-12.823154 33.877895,-12.745549 33.877879,-12.672414" />
      <path d="M 33.877879,-12.672414 C 33.877868,-12.59853 33.89505,-12.529059 33.951068,-12.505424" />
      <line x1="33.951068" y1="-12.795407" x2="33.951068" y2="-12.505424" />
      <path d="M 33.951068,-12.795407 Q 34.637582,-12.53672 35.281911,-12.192713" />
      <path d="M 33.951068,-12.505424 Q 34.637582,-12.246737 35.281911,-11.902731" />
      <line x1="35.281911" y1="-12.192713" x2="35.281911" y2="-11.902731" />
      <path d="M 35.281911,-12.192713 C 35.391082,-12.140628 35.546614,-12.31453 35.602372,-12.390381" />
      <path d="M 35.281911,-11.902731 C 35.391082,-11.850646 35.546614,-12.024548 35.602372,-12.100399" />
      <line x1="35.602372" y1="-12.390381" x2="35.602372" y2="-12.100399" />
      <path d="M 35.602372,-12.390381 C 35.782899,-12.617766 36.048856,-12.846166 36.356876,-13.050255 C 36.665259,-13.254997 37.013343,-13.435564 37.369612,-13.585933 C 37.727588,-13.735844 38.091271,-13.858993 38.460661,-13.955378 C 38.830343,-14.052711 39.202982,-14.126332 39.602654,-14.183598" />
      <path d="M 35.602372,-12.100399 C 35.782899,-12.327784 36.048856,-12.556183 36.356876,-12.760273 C 36.665259,-12.965015 37.013343,-13.145582 37.369612,-13.295951 C 37.727588,-13.445862 38.091271,-13.56901 38.460661,-13.665395 C 38.830343,-13.762729 39.202982,-13.836349 39.602654,-13.893616" />
      <line x1="39.602654" y1="-14.183598" x2="39.602654" y2="-13.893616" />
      <path d="M 39.602654,-14.183598 Q 39.74247,-14.072753 39.879475,-13.958738" />
      <path d="M 39.602654,-13.893616 Q 39.74247,-13.782771 39.879475,-13.668756" />
      <line x1="39.879475" y1="-13.958738" x2="39.879475" y2="-13.668756" />
      <path d="M 39.879475,-13.958738 L 39.880716,-13.800696" />
      <path d="M 39.879475,-13.668756 L 39.880716,-13.510714" />
      <path d="M 39.880716,-13.510714 C 39.881281,-13.146448 39.859875,-12.789823 39.816498,-12.440839 C 39.77331,-12.088809 39.703049,-11.738083 39.605713,-11.388661 C 39.507741,-11.040934 39.379253,-10.6972 39.22185,-10.386333 C 39.064989,-10.075833 38.878808,-9.800136 38.680781,-9.599822" />
      <path d="M 38.680781,-9.599822 C 38.623915,-9.546339 38.510798,-9.419728 38.510509,-9.323032" />
      <path d="M 38.510509,-9.323032 Q 38.510042,-9.290842 38.529065,-9.265084" />
      <line x1="38.529065" y1="-9.399186" x2="38.529065" y2="-9.265084" />
      <path d="M 38.583057,-9.489607 Q 39.010944,-8.966514 39.366733,-8.396289" />
      <path d="M 38.529065,-9.265084 Q 38.988454,-8.712546 39.366733,-8.106306" />
      <line x1="39.366733" y1="-8.396289" x2="39.366733" y2="-8.106306" />
      <path d="M 39.366733,-8.396289 C 39.434066,-8.298942 39.659616,-8.375121 39.747531,-8.414129" />
      <path d="M 39.366733,-8.106306 C 39.434066,-8.008959 39.659616,-8.085138 39.747531,-8.124146" />
      <line x1="39.747531" y1="-8.414129" x2="39.747531" y2="-8.124146" />
      <path d="M 39.747531,-8.414129 C 40.022669,-8.524665 40.372322,-8.5952 40.745701,-8.624554 C 41.119736,-8.6543 41.515523,-8.644112 41.902621,-8.603854 C 42.290958,-8.562384 42.670255,-8.495006 43.040513,-8.401718 C 43.411518,-8.309113 43.772696,-8.194557 44.148741,-8.052901" />
      <path d="M 39.747531,-8.124146 C 40.022669,-8.234683 40.372322,-8.305217 40.745701,-8.334572 C 41.119736,-8.364317 41.515523,-8.354129 41.902621,-8.313872 C 42.290958,-8.272402 42.670255,-8.205023 43.040513,-8.111736 C 43.411518,-8.01913 43.772696,-7.904574 44.148741,-7.762918" />
      <line x1="44.148741" y1="-8.052901" x2="44.148741" y2="-7.762918" />
      <path d="M 44.148741,-8.052901 Q 44.211914,-7.890002 44.270997,-7.725704" />
      <path d="M 44.148741,-7.762918 Q 44.211914,-7.60002 44.270997,-7.435721" />
      <line x1="44.270997" y1="-7.725704" x2="44.270997" y2="-7.435721" />
      <path d="M 44.270997,-7.435721 C 44.074076,-7.097982 43.870696,-6.790219 43.645172,-6.493466 C 43.420678,-6.19664 43.172029,-5.914362 42.899223,-5.646632 C 42.626572,-5.380591 42.327279,-5.132529 42.018347,-4.928546 C 41.710182,-4.724658 41.393078,-4.567012 41.107089,-4.485516" />
      <path d="M 41.107089,-4.485516 C 41.015826,-4.462949 40.800984,-4.388729 40.800265,-4.277863" />
      <path d="M 40.800265,-4.277863 L 40.800816,-4.268222" />
      <line x1="40.800816" y1="-4.287478" x2="40.800816" y2="-4.268222" />
      <path d="M 40.831279,-4.349159 Q 40.91165,-3.753768 40.920855,-3.153836" />
      <path d="M 40.800816,-4.268222 Q 40.909985,-3.569886 40.920855,-2.863854" />
      <line x1="40.920855" y1="-3.153836" x2="40.920855" y2="-2.863854" />
      <path d="M 40.920855,-3.153836 C 40.928309,-3.037311 41.16344,-2.995355 41.259957,-2.987068" />
      <path d="M 40.920855,-2.863854 C 40.928309,-2.747329 41.16344,-2.705373 41.259957,-2.697085" />
      <line x1="41.259957" y1="-2.987068" x2="41.259957" y2="-2.697085" />
      <path d="M 41.259957,-2.987068 C 41.555983,-2.951137 41.895642,-2.844908 42.234334,-2.691662 C 42.573798,-2.538441 42.911237,-2.340227 43.225442,-2.12013 C 43.540085,-1.898391 43.833364,-1.658539 44.105279,-1.400576 C 44.378198,-1.142845 44.631137,-0.870807 44.882794,-0.568186" />
      <path d="M 41.259957,-2.697085 C 41.555983,-2.661155 41.895642,-2.554925 42.234334,-2.401679 C 42.573798,-2.248458 42.911237,-2.050244 43.225442,-1.830148 C 43.540085,-1.608408 43.833364,-1.368557 44.105279,-1.110593 C 44.378198,-0.852863 44.631137,-0.580825 44.882794,-0.278204" />
      <line x1="44.882794" y1="-0.568186" x2="44.882794" y2="-0.278204" />
      <path d="M 44.882794,-0.278204 Q 44.852397,-0.1069 44.817727,0.063659" />
      <path d="M 44.817727,0.063659 C 44.470736,0.26192 44.133814,0.431129 43.783466,0.580208 C 43.433972,0.729844 43.07116,0.855321 42.695029,0.95664 C 42.319913,1.05657 41.931117,1.128182 41.557004,1.157007 C 41.183605,1.186117 40.826622,1.170904 40.536371,1.104631" />
      <path d="M 40.536371,1.104631 C 40.443,1.079815 40.207513,1.03973 40.157606,1.146256" />
      <path d="M 40.157606,1.146256 Q 39.887305,1.803273 39.527853,2.419916" />
      <path d="M 39.589701,2.312368 C 39.637099,2.365218 39.696789,2.411305 39.734396,2.436624" />
      <path d="M 39.527853,2.419916 Q 39.517567,2.439751 39.517743,2.46142" />
      <path d="M 39.517743,2.46142 C 39.51816,2.560863 39.664993,2.679844 39.734396,2.726607" />
      <line x1="39.734396" y1="2.436624" x2="39.734396" y2="2.726607" />
      <path d="M 39.734396,2.436624 C 39.97199,2.609394 40.210644,2.863924 40.423896,3.158709 C 40.637831,3.453841 40.826505,3.786969 40.983625,4.12793 C 41.140267,4.470524 41.268944,4.81858 41.369656,5.172099 C 41.47136,5.525896 41.548286,5.882523 41.608123,6.265023" />
      <path d="M 39.734396,2.726607 C 39.97199,2.899377 40.210644,3.153907 40.423896,3.448691 C 40.637831,3.743823 40.826505,4.076952 40.983625,4.417913 C 41.140267,4.760506 41.268944,5.108563 41.369656,5.462081 C 41.47136,5.815879 41.548286,6.172506 41.608123,6.555005" />
      <line x1="41.608123" y1="6.265023" x2="41.608123" y2="6.555005" />
      <path d="M 41.608123,6.555005 Q 41.492302,6.688813 41.373168,6.819931" />
      <path d="M 41.373168,6.819931 C 40.969084,6.82559 40.588898,6.810906 40.207602,6.772366 C 39.826754,6.734716 39.446994,6.66977 39.06832,6.577531 C 38.691253,6.484573 38.317132,6.360546 37.978081,6.206491 C 37.639499,6.053023 37.338291,5.869026 37.121551,5.672742" />
      <path d="M 37.121551,5.672742 C 37.053654,5.606572 36.870658,5.459173 36.771783,5.527546" />
      <path d="M 36.771783,5.527546 Q 36.194439,5.967195 35.56098,6.329221" />
      <path d="M 35.551033,6.336383 Q 35.566295,6.376557 35.579621,6.403674" />
      <path d="M 35.56098,6.329221 Q 35.508798,6.366816 35.511359,6.443693" />
      <path d="M 35.511359,6.443693 C 35.511427,6.531646 35.553292,6.639276 35.579621,6.693657" />
      <line x1="35.579621" y1="6.403674" x2="35.579621" y2="6.693657" />
      <path d="M 35.579621,6.403674 C 35.74105,6.770546 35.818436,7.273496 35.817436,7.787255" />
      <path d="M 35.579621,6.693657 C 35.74105,7.060528 35.818436,7.563479 35.817436,8.077237" />
      <path d="M 35.817436,8.077237 C 35.817283,8.561197 35.753531,9.051913 35.647817,9.519362 C 35.541091,9.989537 35.394787,10.43711 35.202175,10.905755" />
      <path d="M 35.202175,10.905755 Q 35.031963,10.966214 34.860287,11.022758" />
      <path d="M 34.860287,11.022758 C 34.507384,10.834298 34.185804,10.639657 33.875728,10.423823 C 33.565575,10.208976 33.270623,9.97101 32.990873,9.709927 C 32.712888,9.448991 32.453688,9.162558 32.240547,8.8669 C 32.027505,8.571976 31.862781,8.268498 31.777626,7.994797" />
      <path d="M 31.777626,7.994797 C 31.753396,7.905002 31.671926,7.689784 31.550577,7.701684" />
      <path d="M 31.550577,7.701684 Q 30.820887,7.806163 30.083156,7.816566" />
      <path d="M 30.083156,7.816566 C 29.961399,7.823699 29.917559,8.048727 29.9089,8.141097" />
      <path d="M 29.9089,8.141097 C 29.871356,8.424403 29.760357,8.749468 29.600231,9.073606 C 29.440131,9.398484 29.233018,9.721424 29.003039,10.022128 C 28.771345,10.323252 28.520724,10.603929 28.251179,10.864161 C 27.981877,11.125353 27.697625,11.367423 27.381418,11.608267" />
      <path d="M 27.381418,11.608267 Q 27.202423,11.579177 27.024206,11.545996" />
      <path d="M 25.867026,7.796868 Q 25.8666,7.444943 25.936497,7.158619" />
      <path d="M 27.024206,11.545996 C 26.682075,10.99685 26.414623,10.463115 26.207285,9.876299 C 26.002706,9.296349 25.866953,8.658929 25.867026,8.08685" />
      <path d="M 25.867026,8.08685 Q 25.8666,7.734925 25.936497,7.448602" />
      <line x1="25.936497" y1="7.158619" x2="25.936497" y2="7.448602" />
      <path d="M 25.936497,7.158619 L 25.943105,7.134081" />
      <path d="M 25.936497,7.448602 C 25.949484,7.403842 25.966176,7.326237 25.966192,7.253102" />
      <path d="M 25.966192,7.253102 C 25.966203,7.179217 25.949021,7.109747 25.893003,7.086111" />
      <path d="M 25.893003,7.086111 Q 25.206489,6.827425 24.56216,6.483418" />
      <path d="M 24.56216,6.483418 C 24.452989,6.431333 24.297457,6.605235 24.241699,6.681086" />
      <path d="M 24.241699,6.681086 C 24.061172,6.908471 23.795215,7.136871 23.487195,7.34096 C 23.178812,7.545702 22.830728,7.726269 22.474459,7.876638 C 22.116483,8.026549 21.7528,8.149697 21.38341,8.246082 C 21.013728,8.343416 20.641089,8.417037 20.241417,8.474303" />
      <path d="M 20.241417,8.474303 Q 20.101601,8.363458 19.964596,8.249443" />
      <path d="M 19.963355,7.801418 C 19.96279,7.437153 19.984196,7.080528 20.027574,6.731544 C 20.070761,6.379514 20.141022,6.028788 20.238358,5.679366 C 20.33633,5.331639 20.464818,4.987905 20.622221,4.677038 C 20.779082,4.366538 20.965263,4.090841 21.163291,3.890527" />
      <path d="M 19.964596,8.249443 L 19.963355,8.091401" />
      <path d="M 19.963355,8.091401 C 19.96279,7.727135 19.984196,7.37051 20.027574,7.021526 C 20.070761,6.669496 20.141022,6.31877 20.238358,5.969348 C 20.33633,5.621621 20.464818,5.277888 20.622221,4.96702 C 20.779082,4.656521 20.965263,4.380824 21.163291,4.18051" />
      <line x1="21.163291" y1="3.890527" x2="21.163291" y2="4.18051" />
      <path d="M 21.163291,3.890527 Q 21.206729,3.851045 21.261014,3.780312" />
      <path d="M 21.163291,4.18051 C 21.220156,4.127026 21.333273,4.000415 21.333562,3.903719" />
      <path d="M 21.333562,3.903719 Q 21.334029,3.871529 21.315006,3.845771" />
      <path d="M 21.315006,3.845771 Q 20.855618,3.293234 20.477338,2.686993" />
      <path d="M 20.477338,2.686993 C 20.410005,2.589646 20.184455,2.665825 20.09654,2.704833" />
      <path d="M 20.09654,2.704833 C 19.821402,2.81537 19.471749,2.885905 19.09837,2.915259 C 18.724336,2.945004 18.328548,2.934816 17.94145,2.894559 C 17.553113,2.853089 17.173816,2.78571 16.803558,2.692423 C 16.432553,2.599818 16.071375,2.485261 15.69533,2.343606" />
      <path d="M 15.69533,2.343606 Q 15.632157,2.180707 15.573074,2.016408" />
      <line x1="15.573074" y1="1.726426" x2="15.573074" y2="2.016408" />
      <path d="M 15.573074,1.726426 C 15.916282,1.138689 16.286619,0.62592 16.745275,0.139875" />
      <path d="M 15.573074,2.016408 C 15.769995,1.678669 15.973376,1.370907 16.198899,1.074154 C 16.423393,0.777327 16.672042,0.495049 16.944848,0.227319 C 17.217499,-0.038721 17.516792,-0.286784 17.825724,-0.490767 C 18.133889,-0.694654 18.450993,-0.852301 18.736982,-0.933797" />
      <line x1="18.736982" y1="-1.221028" x2="18.736982" y2="-0.933797" />
      <path d="M 18.741163,-1.224826 C 18.812772,-1.243036 18.950546,-1.290062 19.012792,-1.360137" />
      <path d="M 18.736982,-0.933797 C 18.828245,-0.956364 19.043087,-1.030584 19.043806,-1.14145" />
      <path d="M 19.043806,-1.14145 L 19.043256,-1.151091" />
      <path d="M 13.882843,-4.738428 Q 14.136053,-4.151369 14.318905,-3.541056" />
      <line x1="13.831258" y1="-4.653176" x2="13.831258" y2="-4.566136" />
      <path d="M 13.831258,-4.566136 Q 14.117564,-3.923033 14.318905,-3.251073" />
      <line x1="14.318905" y1="-3.541056" x2="14.318905" y2="-3.251073" />
      <path d="M 14.318905,-3.541056 C 14.371866,-3.393328 14.687219,-3.42227 14.814873,-3.447301" />
      <path d="M 14.318905,-3.251073 C 14.371866,-3.103345 14.687219,-3.132288 14.814873,-3.157319" />
      <line x1="14.814873" y1="-3.447301" x2="14.814873" y2="-3.157319" />
      <path d="M 14.814873,-3.447301 C 15.097278,-3.490046 15.443348,-3.480279 15.804404,-3.427476 C 16.166156,-3.374897 16.541233,-3.28085 16.902346,-3.160733 C 17.26443,-3.039261 17.612944,-2.89556 17.947888,-2.72963 C 18.283648,-2.564144 18.605795,-2.380175 18.936631,-2.167527" />
      <path d="M 14.814873,-3.157319 C 15.101946,-3.200783 15.454765,-3.189935 15.822293,-3.13486 C 16.190572,-3.080013 16.571809,-2.982627 16.938099,-2.858768 C 17.30525,-2.733565 17.658413,-2.585636 17.997589,-2.414984 C 18.337813,-2.244671 18.664429,-2.055346 19.002363,-1.834962" />
      <path d="M 19.002363,-1.834962 L 19.036826,-1.504103" />
      <path d="M 19.036826,-1.504103 C 18.751002,-1.22421 18.469865,-0.976904 18.171468,-0.745665 C 17.874168,-0.514291 17.558469,-0.302551 17.224369,-0.110446 C 16.890837,0.080177 16.53719,0.247673 16.187472,0.37102 C 15.838537,0.494447 15.494898,0.571739 15.204509,0.583367" />
      <path d="M 15.204509,0.583367 C 15.074204,0.582945 14.759087,0.614151 14.737641,0.768978" />
      <path d="M 14.737641,0.768978 Q 14.67887,1.465754 14.530853,2.150292" />
      <path d="M 14.567775,1.972412 C 14.648399,2.069335 14.831479,2.138137 14.924484,2.163909" />
      <path d="M 14.530853,2.150292 L 14.529265,2.169184" />
      <path d="M 14.529265,2.169184 C 14.530202,2.314111 14.804351,2.420648 14.924484,2.453891" />
      <line x1="14.924484" y1="2.163909" x2="14.924484" y2="2.453891" />
      <path d="M 14.924484,2.163909 C 15.19978,2.253101 15.506919,2.419624 15.805605,2.63185 C 16.105066,2.844209 16.395346,3.099997 16.659536,3.372578 C 16.923834,3.646732 17.164712,3.934787 17.382171,4.236742 C 17.600722,4.538863 17.797992,4.851766 17.990202,5.197205" />
      <path d="M 14.924484,2.453891 C 15.19978,2.543083 15.506919,2.709606 15.805605,2.921832 C 16.105066,3.134192 16.395346,3.38998 16.659536,3.66256 C 16.923834,3.936715 17.164712,4.22477 17.382171,4.526725 C 17.600722,4.828846 17.797992,5.141749 17.990202,5.487187" />
      <line x1="17.990202" y1="5.197205" x2="17.990202" y2="5.487187" />
      <path d="M 17.990202,5.487187 L 17.860057,5.795476" />
      <path d="M 17.860057,5.795476 C 17.471059,5.916187 17.102037,6.010128 16.725532,6.082167 C 16.349934,6.154813 15.967577,6.20189 15.578463,6.223399 C 15.19057,6.243847 14.796097,6.234871 14.426542,6.18855 C 14.057641,6.142649 13.715832,6.058253 13.453059,5.939396" />
      <path d="M 13.453059,5.939396 C 13.337884,5.88107 13.043708,5.768552 12.949537,5.896106" />
      <path d="M 12.949537,5.896106 Q 12.559152,6.486931 12.095686,7.027228" />
      <path d="M 12.131567,6.985199 C 12.181909,7.065446 12.251507,7.139533 12.296805,7.181139" />
      <path d="M 12.095686,7.027228 Q 12.069419,7.062035 12.070069,7.105626" />
      <path d="M 12.070069,7.105626 C 12.070469,7.233738 12.219761,7.400315 12.296805,7.471122" />
      <line x1="12.296805" y1="7.181139" x2="12.296805" y2="7.471122" />
      <path d="M 12.296805,7.181139 C 12.497257,7.382554 12.688353,7.666604 12.849772,7.987363 C 13.011813,8.308585 13.144635,8.664177 13.246201,9.023035 C 13.3471,9.383334 13.420511,9.745526 13.466435,10.10961 C 13.513246,10.474327 13.535979,10.839125 13.538431,11.230482" />
      <path d="M 12.296805,7.471122 C 12.497257,7.672536 12.688353,7.956587 12.849772,8.277346 C 13.011813,8.598567 13.144635,8.95416 13.246201,9.313017 C 13.3471,9.673317 13.420511,10.035509 13.466435,10.399593 C 13.513246,10.764309 13.535979,11.129108 13.538431,11.520465" />
      <line x1="13.538431" y1="11.230482" x2="13.538431" y2="11.520465" />
      <path d="M 13.538431,11.520465 L 13.273492,11.735558" />
      <path d="M 13.273492,11.735558 C 12.870436,11.669433 12.498066,11.58849 12.129706,11.484825 C 11.761854,11.382101 11.400434,11.25373 11.045447,11.099715 C 10.692055,10.945303 10.347125,10.761912 10.042393,10.556535 C 9.738036,10.351822 9.476361,10.125071 9.301403,9.902959" />
      <path d="M 9.301403,9.902959 C 9.227743,9.800089 9.021901,9.569623 8.876578,9.640683" />
      <path d="M 8.876578,9.640683 Q 8.244011,9.990207 7.57127,10.262488" />
      <path d="M 7.50158,10.339374 Q 7.517281,10.40882 7.533803,10.455002" />
      <path d="M 7.57127,10.262488 C 7.503509,10.293387 7.481522,10.373896 7.481541,10.46245" />
      <path d="M 7.481541,10.46245 C 7.481579,10.566099 7.511366,10.680734 7.533803,10.744985" />
      <line x1="7.533803" y1="10.455002" x2="7.533803" y2="10.744985" />
      <path d="M 7.533803,10.455002 C 7.60185,10.683745 7.634856,10.963097 7.634672,11.261663" />
      <path d="M 7.533803,10.744985 C 7.60185,10.973727 7.634856,11.253079 7.634672,11.551646" />
      <path d="M 7.634672,11.551646 C 7.634593,12.103852 7.525407,12.704388 7.356448,13.259267 C 7.18521,13.820087 6.960812,14.338208 6.666897,14.88272" />
      <path d="M 6.666897,14.88272 L 6.327858,14.955342" />
      <path d="M 6.327858,14.955342 C 6.003079,14.717531 5.712667,14.480245 5.436839,14.224625 C 5.161004,13.970063 4.903318,13.695654 4.66378,13.401397 C 4.425847,13.1075 4.20948,12.791705 4.039381,12.474322 C 3.869293,12.157693 3.747699,11.840534 3.700635,11.56605" />
      <path d="M 3.700635,11.56605 C 3.685366,11.442203 3.615013,11.146586 3.45183,11.144873" />
      <path d="M 3.45183,11.144873 Q 2.721995,11.173024 1.994097,11.114912" />
      <path d="M 1.994097,11.114912 C 1.830987,11.109919 1.747438,11.402372 1.726627,11.525478" />
      <path d="M 1.726627,11.525478 C 1.667293,11.797775 1.531584,12.109646 1.347449,12.418995 C 1.163269,12.729096 0.932935,13.03571 0.682037,13.31956 C 0.42952,13.603703 0.159762,13.867272 -0.127238,14.110266 C -0.414279,14.354318 -0.715068,14.579452 -1.050215,14.8037" />
      <path d="M -1.050215,14.8037 L -1.385684,14.717214" />
      <path d="M -2.207494,11.257605 C -2.207864,10.884817 -2.161682,10.532782 -2.066174,10.257693" />
      <path d="M -1.385684,14.717214 C -1.639187,14.193712 -1.831288,13.69768 -1.975401,13.167248 C -2.117749,12.64153 -2.20735,12.079533 -2.207494,11.547587" />
      <path d="M -2.207494,11.547587 C -2.207864,11.174799 -2.161682,10.822764 -2.066174,10.547676" />
      <line x1="-2.066174" y1="10.257693" x2="-2.066174" y2="10.547676" />
      <path d="M -2.066174,10.257693 Q -2.044664,10.205372 -2.023933,10.124424" />
      <path d="M -2.066174,10.547676 C -2.039046,10.47982 -2.000827,10.354328 -2.000771,10.245155" />
      <path d="M -2.000771,10.245155 C -2.000755,10.165606 -2.021292,10.094868 -2.081963,10.064084" />
      <path d="M -2.081963,10.064084 Q -2.741869,9.764413 -3.358172,9.389221" />
      <path d="M -3.358172,9.389221 C -3.500174,9.312256 -3.716165,9.534052 -3.794371,9.633801" />
      <path d="M -3.794371,9.633801 C -3.979133,9.848519 -4.250738,10.064309 -4.563997,10.256329 C -4.877662,10.448995 -5.230501,10.618046 -5.590493,10.757795 C -5.952063,10.897083 -6.318908,11.010485 -6.691029,11.098001 C -7.063699,11.186436 -7.439357,11.252004 -7.845008,11.301508" />
      <path d="M -7.845008,11.301508 L -8.100054,11.075727" />
      <line x1="-8.100054" y1="10.785745" x2="-8.100054" y2="11.075727" />
      <path d="M -8.100054,10.785745 C -8.080047,10.394849 -8.040971,10.031321 -7.977842,9.668864 C -7.915628,9.307003 -7.826037,8.948161 -7.709068,8.592339 C -7.591497,8.237986 -7.442846,7.888178 -7.266545,7.573911 C -7.090886,7.26008 -6.887223,6.984143 -6.677921,6.79115" />
      <path d="M -8.100054,11.075727 C -8.080047,10.684832 -8.040971,10.321304 -7.977842,9.958847 C -7.915628,9.596985 -7.826037,9.238144 -7.709068,8.882322 C -7.591497,8.527968 -7.442846,8.178161 -7.266545,7.863893 C -7.090886,7.550062 -6.887223,7.274125 -6.677921,7.081132" />
      <line x1="-6.677921" y1="6.79115" x2="-6.677921" y2="7.081132" />
      <path d="M -6.677921,6.79115 C -6.629038,6.749959 -6.552442,6.674909 -6.498079,6.59338" />
      <path d="M -6.677921,7.081132 C -6.596313,7.012329 -6.435282,6.847267 -6.434838,6.718249" />
      <path d="M -6.434838,6.718249 Q -6.434322,6.678766 -6.457074,6.645912" />
      <path d="M -6.457074,6.645912 Q -6.895876,6.08707 -7.259397,5.48075" />
      <path d="M -7.259397,5.48075 C -7.347759,5.349444 -7.646711,5.449772 -7.764396,5.503312" />
      <path d="M -7.764396,5.503312 C -8.032259,5.611262 -8.377539,5.681537 -8.748159,5.712239 C -9.119451,5.743333 -9.513963,5.736092 -9.900581,5.699726 C -10.288372,5.66225 -10.668264,5.599506 -11.040257,5.511495 C -11.413183,5.424053 -11.777651,5.315035 -12.160875,5.178453" />
      <path d="M -12.160875,5.178453 L -12.277071,4.865102" />
      <line x1="-12.277071" y1="4.575119" x2="-12.277071" y2="4.865102" />
      <path d="M -12.277071,4.575119 C -12.081913,4.257969 -11.883712,3.970064 -11.667861,3.693115 C -11.453092,3.416517 -11.218482,3.152671 -10.964032,2.901577" />
      <path d="M -12.277071,4.865102 C -12.069542,4.527879 -11.858417,4.22337 -11.626514,3.930507 C -11.395711,3.637765 -11.142132,3.359873 -10.865779,3.09683 C -10.589606,2.835356 -10.288119,2.59173 -9.979407,2.391871 C -9.671477,2.192113 -9.357151,2.038363 -9.078107,1.960564" />
      <line x1="-9.078107" y1="1.756313" x2="-9.078107" y2="1.960564" />
      <path d="M -8.904361,1.614248 C -8.82513,1.58127 -8.745128,1.536279 -8.702158,1.480836" />
      <path d="M -9.078107,1.960564 C -8.955215,1.931973 -8.671353,1.834862 -8.670368,1.687304" />
      <path d="M -8.670368,1.687304 L -8.67122,1.673418" />
      <path d="M -8.67122,1.673418 Q -8.788392,0.983429 -8.815852,0.284881" />
      <path d="M -8.815852,0.284881 C -8.830333,0.129316 -9.14376,0.085192 -9.273964,0.080258" />
      <path d="M -9.273964,0.080258 C -9.563563,0.05671 -9.903418,-0.034629 -10.246494,-0.17228 C -10.590356,-0.309882 -10.936163,-0.491754 -11.260837,-0.695905 C -11.586011,-0.90156 -11.891921,-1.126076 -12.178567,-1.369452 C -12.466316,-1.612738 -12.736099,-1.871367 -13.009104,-2.162746" />
      <line x1="-13.009104" y1="-2.452728" x2="-13.009104" y2="-2.162746" />
      <path d="M -13.009104,-2.452728 L -13.00635,-2.472554" />
      <path d="M -13.009104,-2.162746 L -12.959831,-2.491883" />
      <line x1="-12.959831" y1="-2.506175" x2="-12.959831" y2="-2.491883" />
      <path d="M -12.246871,-3.170543 C -11.684281,-3.448705 -11.089036,-3.675268 -10.461446,-3.822571 C -9.840468,-3.969301 -9.18967,-4.02346 -8.716881,-3.930951" />
      <path d="M -12.959831,-2.491883 C -12.612322,-2.69818 -12.277514,-2.87391 -11.929964,-3.030087 C -11.583445,-3.186647 -11.223972,-3.319928 -10.851543,-3.429931 C -10.480035,-3.538625 -10.09478,-3.620258 -9.72438,-3.659923 C -9.354721,-3.699847 -9.00174,-3.696188 -8.716881,-3.640969" />
      <line x1="-8.716881" y1="-3.930951" x2="-8.716881" y2="-3.640969" />
      <path d="M -8.716881,-3.930951 C -8.590468,-3.900698 -8.276704,-3.858826 -8.217165,-4.004241" />
      <path d="M -8.716881,-3.640969 C -8.590468,-3.610716 -8.276704,-3.568843 -8.217165,-3.714259" />
      <line x1="-8.217165" y1="-4.004241" x2="-8.217165" y2="-3.714259" />
      <path d="M -8.217165,-4.004241 Q -8.00528,-4.611704 -7.722963,-5.192539" />
      <path d="M -8.217165,-3.714259 Q -7.985866,-4.377327 -7.670974,-5.008073" />
      <line x1="-7.670974" y1="-5.106897" x2="-7.670974" y2="-5.008073" />
      <path d="M -7.670974,-5.008073 Q -7.660931,-5.031101 -7.661075,-5.055152" />
      <path d="M -7.661075,-5.055152 C -7.661735,-5.189384 -7.876167,-5.337182 -7.977249,-5.393005" />
      <path d="M -7.977249,-5.393005 C -8.222242,-5.542657 -8.478815,-5.774686 -8.715753,-6.049154 C -8.95341,-6.323929 -9.171292,-6.638768 -9.359643,-6.963935 C -9.547706,-7.290656 -9.709554,-7.62551 -9.845186,-7.968496 C -9.981838,-8.311894 -10.095132,-8.660885 -10.195376,-9.040309" />
      <line x1="-10.195376" y1="-9.330291" x2="-10.195376" y2="-9.040309" />
      <path d="M -10.195376,-9.330291 L -9.991922,-9.599814" />
      <path d="M -10.195376,-9.040309 L -9.991922,-9.309831" />
      <line x1="-9.991922" y1="-9.599814" x2="-9.991922" y2="-9.309831" />
      <path d="M -9.991922,-9.599814 C -9.584043,-9.627924 -9.202252,-9.634617 -8.818674,-9.618331 C -8.435824,-9.602842 -8.052806,-9.560979 -7.669621,-9.492742 C -7.287886,-9.423756 -6.90712,-9.324694 -6.559886,-9.195079 C -6.213183,-9.066021 -5.90241,-8.905791 -5.676994,-8.730205" />
      <path d="M -9.991922,-9.309831 C -9.584043,-9.337941 -9.202252,-9.344635 -8.818674,-9.328348 C -8.435824,-9.312859 -8.052806,-9.270996 -7.669621,-9.202759 C -7.287886,-9.133773 -6.90712,-9.034711 -6.559886,-8.905096 C -6.213183,-8.776039 -5.90241,-8.615809 -5.676994,-8.440223" />
      <line x1="-5.676994" y1="-8.730205" x2="-5.676994" y2="-8.440223" />
      <path d="M -5.676994,-8.730205 C -5.579751,-8.647195 -5.32226,-8.47057 -5.198929,-8.572849" />
      <path d="M -5.676994,-8.440223 C -5.579751,-8.357212 -5.32226,-8.180588 -5.198929,-8.282867" />
      <line x1="-5.198929" y1="-8.572849" x2="-5.198929" y2="-8.282867" />
      <path d="M -5.198929,-8.572849 Q -4.672146,-9.057095 -4.08704,-9.475544" />
      <path d="M -5.198929,-8.282867 Q -4.672146,-8.767113 -4.08704,-9.185561" />
      <line x1="-4.08704" y1="-9.475544" x2="-4.08704" y2="-9.185561" />
      <path d="M -4.08704,-9.475544 L -4.077673,-9.483674" />
      <path d="M -4.08704,-9.185561 Q -4.034568,-9.230444 -4.036616,-9.306794" />
      <path d="M -4.036616,-9.306794 C -4.036796,-9.428964 -4.121452,-9.587175 -4.171315,-9.662619" />
      <path d="M -4.634537,-12.124988 C -4.633725,-12.469001 -4.610233,-12.809135 -4.564061,-13.14539 C -4.518371,-13.482641 -4.452684,-13.816398 -4.364283,-14.168651" />
      <path d="M -4.171315,-9.662619 C -4.326433,-9.922135 -4.446848,-10.271746 -4.523217,-10.650566 C -4.60019,-11.030239 -4.634633,-11.436366 -4.634537,-11.835006" />
      <path d="M -4.634537,-11.835006 C -4.633725,-12.179018 -4.610233,-12.519152 -4.564061,-12.855408 C -4.518371,-13.192658 -4.452684,-13.526416 -4.364283,-13.878669" />
      <line x1="-4.364283" y1="-14.168651" x2="-4.364283" y2="-13.878669" />
      <path d="M -4.364283,-14.168651 L -4.053256,-14.316814" />
      <path d="M -4.364283,-13.878669 L -4.053256,-14.026832" />
      <line x1="-4.053256" y1="-14.316814" x2="-4.053256" y2="-14.026832" />
      <path d="M -4.053256,-14.316814 C -3.678447,-14.160298 -3.337138,-13.996422 -3.005405,-13.811403 C -2.673929,-13.627413 -2.355112,-13.419996 -2.048953,-13.189152 C -1.744442,-12.95829 -1.455394,-12.701227 -1.210873,-12.432024 C -0.966551,-12.163552 -0.769182,-11.883458 -0.654848,-11.627729" />
      <path d="M -4.053256,-14.026832 C -3.678447,-13.870316 -3.337138,-13.70644 -3.005405,-13.52142 C -2.673929,-13.337431 -2.355112,-13.130014 -2.048953,-12.89917 C -1.744442,-12.668307 -1.455394,-12.411244 -1.210873,-12.142042 C -0.966551,-11.873569 -0.769182,-11.593475 -0.654848,-11.337746" />
      <line x1="-0.654848" y1="-11.627729" x2="-0.654848" y2="-11.337746" />
      <path d="M -0.654848,-11.627729 C -0.609053,-11.510977 -0.466823,-11.240064 -0.307953,-11.275775" />
      <path d="M -0.654848,-11.337746 C -0.609053,-11.220995 -0.466823,-10.950081 -0.307953,-10.985793" />
      <line x1="-0.307953" y1="-11.275775" x2="-0.307953" y2="-10.985793" />
      <path d="M -0.307953,-11.275775 Q 0.393635,-11.470264 1.114913,-11.580554" />
      <path d="M -0.307953,-10.985793 Q 0.393635,-11.180282 1.114913,-11.290571" />
      <line x1="1.114913" y1="-11.580554" x2="1.114913" y2="-11.290571" />
      <path d="M 1.114913,-11.580554 C 1.219174,-11.601212 1.258819,-11.739123 1.270703,-11.865531" />
      <path d="M 1.114913,-11.290571 C 1.246655,-11.316971 1.27511,-11.529173 1.27508,-11.671213" />
      <path d="M 1.27508,-11.671213 Q 1.274907,-11.717061 1.271945,-11.750466" />
      <path d="M 1.270703,-12.109761 C 1.270418,-12.390813 1.331027,-12.721484 1.435814,-13.058053 C 1.540517,-13.395348 1.687685,-13.737404 1.858893,-14.062511 C 2.031431,-14.388104 2.224781,-14.698353 2.438942,-14.993259 C 2.652967,-15.289229 2.884492,-15.570908 3.148344,-15.859399" />
      <path d="M 1.271945,-11.750466 L 1.270703,-11.819778" />
      <path d="M 1.270703,-11.819778 C 1.270418,-12.10083 1.331027,-12.431501 1.435814,-12.76807 C 1.540517,-13.105366 1.687685,-13.447421 1.858893,-13.772529 C 2.031431,-14.098122 2.224781,-14.408371 2.438942,-14.703276 C 2.652967,-14.999246 2.884492,-15.280926 3.148344,-15.569416" />
      <line x1="3.148344" y1="-15.859399" x2="3.148344" y2="-15.569416" />
      <path d="M 3.148344,-15.859399 L 3.495691,-15.85226" />
      <path d="M 3.148344,-15.569416 L 3.495691,-15.562277" />
      <line x1="3.495691" y1="-15.85226" x2="3.495691" y2="-15.562277" />
      <path d="M 3.495691,-15.85226 C 3.739406,-15.561499 3.952762,-15.278535 4.148804,-14.983171 C 4.344927,-14.688891 4.520966,-14.380998 4.676921,-14.059492 C 4.831768,-13.738319 4.963868,-13.401785 5.057675,-13.068787 C 5.151529,-12.736481 5.205717,-12.408557 5.205497,-12.124686" />
      <path d="M 3.495691,-15.562277 C 3.739406,-15.271517 3.952762,-14.988553 4.148804,-14.693188 C 4.344927,-14.398908 4.520966,-14.091016 4.676921,-13.76951 C 4.831768,-13.448337 4.963868,-13.111802 5.057675,-12.778804 C 5.151529,-12.446499 5.205717,-12.118574 5.205497,-11.834703" />
      <path d="M 5.205497,-11.834703 Q 5.205507,-11.749258 5.199044,-11.669752" />
      <path d="M 5.201202,-11.699158 C 5.217099,-11.601501 5.255238,-11.513058 5.3353,-11.493812" />
      <path d="M 5.199044,-11.669752 Q 5.191959,-11.618642 5.191281,-11.543031" />
      <path d="M 5.191281,-11.543031 C 5.191248,-11.405594 5.218797,-11.232067 5.3353,-11.203829" />
      <line x1="5.3353" y1="-11.493812" x2="5.3353" y2="-11.203829" />
      <path d="M 5.3353,-11.493812 Q 6.050966,-11.353989 6.743182,-11.130853" />
      <path d="M 5.3353,-11.203829 Q 6.050966,-11.064006 6.743182,-10.84087" />
      <line x1="6.743182" y1="-11.130853" x2="6.743182" y2="-10.84087" />
      <path d="M 6.743182,-11.130853 C 6.900304,-11.088647 7.054556,-11.353467 7.105546,-11.468229" />
      <path d="M 6.743182,-10.84087 C 6.900304,-10.798664 7.054556,-11.063484 7.105546,-11.178246" />
      <line x1="7.105546" y1="-11.468229" x2="7.105546" y2="-11.178246" />
      <path d="M 7.105546,-11.468229 C 7.231246,-11.719024 7.440999,-11.990751 7.697139,-12.248937 C 7.95351,-12.507845 8.253824,-12.752794 8.56841,-12.970933 C 8.884642,-13.188985 9.21247,-13.383111 9.551894,-13.553312 C 9.891621,-13.72453 10.239967,-13.874232 10.621451,-14.015204" />
      <path d="M 7.105546,-11.178246 C 7.231246,-11.429042 7.440999,-11.700768 7.697139,-11.958955 C 7.95351,-12.217862 8.253824,-12.462812 8.56841,-12.68095 C 8.884642,-12.899002 9.21247,-13.093129 9.551894,-13.263329 C 9.891621,-13.434548 10.239967,-13.584249 10.621451,-13.725221" />
      <line x1="10.621451" y1="-14.015204" x2="10.621451" y2="-13.725221" />
      <path d="M 10.621451,-14.015204 L 10.925545,-13.854398" />
      <path d="M 10.621451,-13.725221 L 10.925545,-13.564416" />
      <line x1="10.925545" y1="-13.854398" x2="10.925545" y2="-13.564416" />
      <path d="M 10.925545,-13.854398 C 11.046898,-13.257699 11.110156,-12.704569 11.111073,-12.125342" />
      <path d="M 10.925545,-13.564416 C 11.046898,-12.967716 11.110156,-12.414587 11.111073,-11.83536" />
      <path d="M 11.111073,-11.83536 C 11.111168,-11.385606 11.069733,-10.923428 10.975433,-10.487082 C 10.882055,-10.052284 10.733065,-9.647452 10.543626,-9.360181" />
      <path d="M 10.543626,-9.360181 C 10.488809,-9.284628 10.393049,-9.122658 10.392834,-8.999099" />
      <path d="M 10.392834,-8.999099 Q 10.391145,-8.930187 10.438028,-8.887026" />
      <line x1="10.438028" y1="-9.176238" x2="10.438028" y2="-8.887026" />
      <path d="M 10.43828,-9.176812 Q 11.003936,-8.734793 11.508397,-8.229462" />
      <path d="M 10.438028,-8.887026 Q 11.003823,-8.444923 11.508397,-7.93948" />
      <line x1="11.508397" y1="-8.229462" x2="11.508397" y2="-7.93948" />
      <path d="M 11.508397,-8.229462 C 11.627027,-8.12221 11.892203,-8.288092 11.99308,-8.367031" />
      <path d="M 11.508397,-7.93948 C 11.627027,-7.832228 11.892203,-7.99811 11.99308,-8.077048" />
      <line x1="11.99308" y1="-8.367031" x2="11.99308" y2="-8.077048" />
      <path d="M 11.99308,-8.367031 C 12.226165,-8.533193 12.543839,-8.680507 12.896012,-8.7952 C 13.24874,-8.910429 13.633599,-8.993755 14.018077,-9.046993 C 14.40397,-9.099423 14.788513,-9.12551 15.171705,-9.125255 C 15.55566,-9.125766 15.936798,-9.103392 16.34304,-9.058549" />
      <path d="M 11.99308,-8.077048 C 12.226165,-8.243211 12.543839,-8.390524 12.896012,-8.505217 C 13.24874,-8.620446 13.633599,-8.703772 14.018077,-8.75701 C 14.40397,-8.80944 14.788513,-8.835527 15.171705,-8.835272 C 15.55566,-8.835783 15.936798,-8.813409 16.34304,-8.768566" />
      <line x1="16.34304" y1="-9.058549" x2="16.34304" y2="-8.768566" />
      <path d="M 16.34304,-9.058549 L 16.534216,-8.780915" />
      <path d="M 16.34304,-8.768566 L 16.534216,-8.490933" />
      <line x1="16.534216" y1="-8.780915" x2="16.534216" y2="-8.490933" />
      <path d="M 16.534216,-8.490933 C 16.417044,-8.115978 16.288199,-7.771963 16.136268,-7.434497 C 15.985375,-7.0974 15.808655,-6.769505 15.606108,-6.450812 C 15.403344,-6.133683 15.171539,-5.828087 14.921775,-5.56333 C 14.672744,-5.29885 14.405999,-5.077577 14.154518,-4.938129" />
      <path d="M 14.154518,-4.938129 C 14.049642,-4.885825 13.824065,-4.743823 13.823356,-4.608118" />
      <path d="M 13.823356,-4.608118 Q 13.823254,-4.586877 13.831258,-4.566136" />
      <path d="M -13.712545,-2.004688 Q -13.510867,-1.497779 -13.357557,-0.975711" />
      <line x1="-13.756672" y1="-1.923334" x2="-13.756672" y2="-1.824008" />
      <path d="M -13.756672,-1.824008 Q -13.527492,-1.264381 -13.357557,-0.685729" />
      <line x1="-13.357557" y1="-0.975711" x2="-13.357557" y2="-0.685729" />
      <path d="M -13.357557,-0.975711 C -13.290567,-0.788059 -12.894056,-0.827269 -12.731096,-0.862098" />
      <path d="M -13.357557,-0.685729 C -13.290567,-0.498076 -12.894056,-0.537286 -12.731096,-0.572116" />
      <line x1="-12.731096" y1="-0.862098" x2="-12.731096" y2="-0.572116" />
      <path d="M -12.731096,-0.862098 C -12.370645,-0.920198 -11.89559,-0.889977 -11.415809,-0.795967" />
      <path d="M -12.731096,-0.572116 C -12.457941,-0.615899 -12.117806,-0.609807 -11.760826,-0.562495 C -11.403115,-0.515398 -11.030345,-0.428656 -10.670083,-0.316609 C -10.309016,-0.203418 -9.959377,-0.068106 -9.621167,0.089327 C -9.28181,0.246582 -8.953456,0.422743 -8.609761,0.630389" />
      <path d="M -8.609761,0.630389 Q -8.567962,0.962399 -8.540453,1.295773" />
      <path d="M -8.540453,1.295773 C -8.834553,1.564266 -9.120107,1.798996 -9.420349,2.017271 C -9.719429,2.235503 -10.034276,2.434209 -10.364889,2.613388 C -10.69495,2.791293 -11.042491,2.946755 -11.383448,3.060507 C -11.723643,3.174332 -12.055828,3.244566 -12.332639,3.25325" />
      <path d="M -12.332639,3.25325 C -12.499577,3.249894 -12.896372,3.286368 -12.923336,3.482984" />
      <path d="M -12.923336,3.482984 Q -12.970567,4.082354 -13.0798,4.674267" />
      <path d="M -13.048753,4.49849 C -12.956277,4.631474 -12.696195,4.717804 -12.566886,4.746778" />
      <path d="M -13.0798,4.674267 L -13.08108,4.693458" />
      <path d="M -13.08108,4.693458 C -13.079778,4.879709 -12.724274,5.001597 -12.566886,5.036761" />
      <line x1="-12.566886" y1="4.746778" x2="-12.566886" y2="5.036761" />
      <path d="M -12.566886,4.746778 Q -12.427609,4.785792 -12.277071,4.849299" />
      <path d="M -11.278,5.452555 C -10.906538,5.738242 -10.562692,6.066886 -10.254974,6.412803 C -9.945704,6.761036 -9.671223,7.124958 -9.398864,7.541543" />
      <path d="M -12.566886,5.036761 C -12.300933,5.110738 -11.997243,5.257464 -11.697065,5.448324 C -11.396131,5.639293 -11.099603,5.872234 -10.825816,6.12278 C -10.551822,6.374691 -10.298154,6.641787 -10.064812,6.924068 C -9.830355,7.206665 -9.614383,7.501727 -9.398864,7.831525" />
      <line x1="-9.398864" y1="7.541543" x2="-9.398864" y2="7.831525" />
      <path d="M -9.398864,7.831525 Q -9.511726,8.148013 -9.638081,8.459795" />
      <path d="M -9.638081,8.459795 C -10.024781,8.579577 -10.388475,8.672488 -10.757941,8.744474 C -11.126342,8.816904 -11.500095,8.865195 -11.879201,8.889346 C -12.257231,8.912578 -12.640835,8.908331 -12.999598,8.869239 C -13.357707,8.830529 -13.688837,8.75587 -13.942172,8.648752" />
      <path d="M -13.942172,8.648752 C -14.091056,8.576408 -14.465092,8.444504 -14.578525,8.610453" />
      <path d="M -14.578525,8.610453 Q -14.892811,9.130855 -15.259579,9.618791" />
      <path d="M -15.230235,9.579591 C -15.158983,9.697804 -15.036766,9.810527 -14.961801,9.868387" />
      <path d="M -15.259579,9.618791 Q -15.286048,9.658978 -15.285484,9.70594" />
      <path d="M -15.285484,9.70594 C -15.284841,9.869429 -15.071397,10.073775 -14.961801,10.15837" />
      <line x1="-14.961801" y1="9.868387" x2="-14.961801" y2="10.15837" />
      <path d="M -14.961801,9.868387 C -14.755724,10.045473 -14.548629,10.303774 -14.364707,10.600378 C -14.180153,10.897396 -14.018598,11.230399 -13.885512,11.56982 C -13.75286,11.910558 -13.645405,12.256536 -13.563147,12.607756 C -13.480028,12.959723 -13.419215,13.315244 -13.374557,13.701875" />
      <path d="M -14.961801,10.15837 C -14.755724,10.335456 -14.548629,10.593756 -14.364707,10.890361 C -14.180153,11.187378 -14.018598,11.520381 -13.885512,11.859803 C -13.75286,12.20054 -13.645405,12.546519 -13.563147,12.897739 C -13.480028,13.249705 -13.419215,13.605227 -13.374557,13.991857" />
      <line x1="-13.374557" y1="13.701875" x2="-13.374557" y2="13.991857" />
      <path d="M -13.374557,13.991857 Q -13.619726,14.230138 -13.874919,14.458577" />
      <path d="M -13.874919,14.458577 C -14.277628,14.405923 -14.647427,14.338612 -15.012941,14.250051 C -15.377696,14.162334 -15.736329,14.050645 -16.08884,13.914984 C -16.439966,13.778942 -16.783657,13.615828 -17.089168,13.431634 C -17.394263,13.248056 -17.658754,13.043292 -17.838437,12.841587" />
      <path d="M -17.838437,12.841587 C -17.939779,12.714585 -18.216974,12.440429 -18.394408,12.542841" />
      <path d="M -18.394408,12.542841 Q -18.913501,12.881203 -19.46516,13.168522" />
      <path d="M -19.531183,13.2429 C -19.507535,13.339032 -19.470282,13.430348 -19.441497,13.488332" />
      <path d="M -19.46516,13.168522 C -19.530564,13.206584 -19.554058,13.281014 -19.554038,13.366278" />
      <path d="M -19.554038,13.366278 C -19.553912,13.511352 -19.486926,13.686737 -19.441497,13.778315" />
      <line x1="-19.441497" y1="13.488332" x2="-19.441497" y2="13.778315" />
      <path d="M -19.441497,13.488332 C -19.287858,13.844392 -19.213365,14.35255 -19.214425,14.87192" />
      <path d="M -19.441497,13.778315 C -19.287858,14.134375 -19.213365,14.642533 -19.214425,15.161903" />
      <path d="M -19.214425,15.161903 C -19.214581,15.62105 -19.268157,16.087228 -19.358995,16.536665 C -19.450776,16.988788 -19.577608,17.424217 -19.749404,17.891256" />
      <path d="M -19.749404,17.891256 Q -20.078323,18.004135 -20.411809,18.103985" />
      <path d="M -20.411809,18.103985 C -20.750766,17.889324 -21.053427,17.675123 -21.342593,17.443557 C -21.631458,17.213065 -21.90394,16.963518 -22.160038,16.694915 C -22.414715,16.426543 -22.650419,16.136868 -22.842168,15.844055 C -23.033822,15.551969 -23.179287,15.257656 -23.24973,15.001314" />
      <path d="M -23.24973,15.001314 C -23.283458,14.844807 -23.40891,14.482699 -23.615202,14.501292" />
      <path d="M -23.615202,14.501292 Q -24.236291,14.590596 -24.863578,14.62039" />
      <path d="M -24.863578,14.62039 C -25.069646,14.641138 -25.117935,15.019822 -25.118716,15.179621" />
      <path d="M -25.118716,15.179621 C -25.134897,15.444226 -25.21679,15.76023 -25.344422,16.082777 C -25.471998,16.406055 -25.643312,16.734561 -25.837619,17.045766 C -26.033272,17.357468 -26.248916,17.653584 -26.484552,17.934115 C -26.720261,18.215755 -26.972783,18.482922 -27.26079,18.757397" />
      <path d="M -27.26079,18.757397 Q -27.60831,18.722517 -27.95404,18.674002" />
      <path d="M -29.146925,14.887078 Q -29.147118,14.625254 -29.104279,14.410189" />
      <path d="M -27.95404,18.674002 C -28.310862,18.100122 -28.582618,17.557447 -28.796084,16.961567 C -29.006203,16.374085 -29.147081,15.729162 -29.146925,15.17706" />
      <path d="M -29.146925,15.17706 Q -29.147118,14.915236 -29.104279,14.700172" />
      <line x1="-29.104279" y1="14.410189" x2="-29.104279" y2="14.700172" />
      <path d="M -29.104279,14.410189 Q -29.08985,14.356175 -29.078284,14.278182" />
      <path d="M -29.104279,14.700172 C -29.08625,14.63109 -29.066447,14.519813 -29.066427,14.410244" />
      <path d="M -29.066427,14.410244 C -29.066378,14.271868 -29.098353,14.135603 -29.206866,14.097909" />
      <path d="M -29.206866,14.097909 Q -29.806935,13.920468 -30.385609,13.686836" />
      <path d="M -30.385609,13.686836 C -30.580676,13.619961 -30.795865,13.941092 -30.869016,14.084742" />
      <path d="M -30.869016,14.084742 C -31.003556,14.316424 -31.220604,14.567128 -31.481828,14.804735 C -31.743333,15.043024 -32.046613,15.267861 -32.362768,15.467563 C -32.680359,15.667154 -33.008896,15.844401 -33.348379,15.999305 C -33.688432,16.155178 -34.037069,16.29103 -34.420992,16.418731" />
      <path d="M -34.420992,16.418731 Q -34.718284,16.243 -35.00778,16.055729" />
      <path d="M -35.051229,14.869576 C -35.051122,14.29484 -34.993983,13.715972 -34.859541,13.149884 C -34.727185,12.588884 -34.50852,12.048265 -34.242519,11.707823" />
      <path d="M -35.00778,16.055729 Q -35.051193,15.592134 -35.051229,15.159559" />
      <path d="M -35.051229,15.159559 C -35.051122,14.584822 -34.993983,14.005954 -34.859541,13.439866 C -34.727185,12.878867 -34.50852,12.338248 -34.242519,11.997806" />
      <line x1="-34.242519" y1="11.707823" x2="-34.242519" y2="11.997806" />
      <path d="M -34.242519,11.707823 C -34.187957,11.645001 -34.106021,11.533038 -34.056345,11.418308" />
      <path d="M -34.242519,11.997806 C -34.160363,11.903174 -34.014557,11.695231 -34.014176,11.537271" />
      <path d="M -34.014176,11.537271 Q -34.012635,11.463595 -34.061902,11.412587" />
      <path d="M -34.061902,11.412587 Q -34.522101,11.003546 -34.937548,10.552762" />
      <path d="M -34.937548,10.552762 C -35.082978,10.41151 -35.422446,10.611484 -35.553478,10.710532" />
      <path d="M -35.553478,10.710532 C -35.779731,10.863404 -36.088945,10.999154 -36.432022,11.104759 C -36.775661,11.210862 -37.15084,11.287499 -37.526223,11.336145 C -37.90285,11.384093 -38.279209,11.407365 -38.655301,11.405961 C -39.032345,11.405195 -39.408047,11.382825 -39.811844,11.338459" />
      <path d="M -39.811844,11.338459 Q -40.000025,11.056684 -40.17595,10.767747" />
      <line x1="-40.17595" y1="10.477765" x2="-40.17595" y2="10.767747" />
      <path d="M -40.17595,10.477765 C -40.0327,10.113739 -39.881842,9.78368 -39.710292,9.462349 C -39.539768,9.141538 -39.346187,8.831773 -39.129548,8.533054 C -38.91283,8.235713 -38.670187,7.951333 -38.414567,7.707267 C -38.159665,7.463452 -37.892218,7.262237 -37.646758,7.13947" />
      <path d="M -40.17595,10.767747 C -40.0327,10.403721 -39.881842,10.073663 -39.710292,9.752332 C -39.539768,9.431521 -39.346187,9.121756 -39.129548,8.823037 C -38.91283,8.525696 -38.670187,8.241316 -38.414567,7.99725 C -38.159665,7.753434 -37.892218,7.552219 -37.646758,7.429452" />
      <line x1="-37.646758" y1="7.13947" x2="-37.646758" y2="7.429452" />
      <path d="M -37.646758,7.13947 C -37.543195,7.094169 -37.355113,6.989908 -37.262838,6.867885" />
      <path d="M -37.646758,7.429452 C -37.507562,7.368619 -37.211417,7.198813 -37.210409,7.025593" />
      <path d="M -37.210409,7.025593 Q -37.210314,7.001297 -37.218711,6.977188" />
      <path d="M -37.218711,6.977188 Q -37.44789,6.417561 -37.617826,5.838909" />
      <path d="M -37.617826,5.838909 C -37.684816,5.651256 -38.081326,5.690466 -38.244287,5.725295" />
      <path d="M -38.244287,5.725295 C -38.517441,5.769079 -38.857577,5.762987 -39.214557,5.715675 C -39.572268,5.668577 -39.945037,5.581835 -40.3053,5.469789 C -40.666367,5.356598 -41.016005,5.221286 -41.354216,5.063853 C -41.693573,4.906598 -42.021927,4.730437 -42.365622,4.522791" />
      <path d="M -42.365622,4.522791 Q -42.407421,4.19078 -42.43493,3.857406" />
      <line x1="-42.43493" y1="3.567424" x2="-42.43493" y2="3.857406" />
      <path d="M -42.43493,3.567424 C -42.14083,3.298931 -41.855275,3.064201 -41.555034,2.845927 C -41.255954,2.627694 -40.941107,2.428988 -40.610494,2.249809 C -40.280433,2.071904 -39.932892,1.916442 -39.591935,1.80269 C -39.25174,1.688865 -38.919554,1.618632 -38.642744,1.609947" />
      <path d="M -42.43493,3.857406 C -42.14083,3.588913 -41.855275,3.354183 -41.555034,3.135909 C -41.255954,2.917676 -40.941107,2.718971 -40.610494,2.539791 C -40.280433,2.361886 -39.932892,2.206424 -39.591935,2.092672 C -39.25174,1.978847 -38.919554,1.908614 -38.642744,1.89993" />
      <line x1="-38.642744" y1="1.609947" x2="-38.642744" y2="1.89993" />
      <path d="M -38.642744,1.609947 C -38.475806,1.613303 -38.079011,1.576829 -38.052047,1.380213" />
      <path d="M -38.642744,1.89993 C -38.475806,1.903286 -38.079011,1.866812 -38.052047,1.670196" />
      <line x1="-38.052047" y1="1.380213" x2="-38.052047" y2="1.670196" />
      <path d="M -38.052047,1.380213 Q -38.011852,0.869994 -37.926629,0.364707" />
      <path d="M -38.052047,1.670196 Q -38.004816,1.070825 -37.895583,0.478913" />
      <line x1="-37.895583" y1="0.440609" x2="-37.895583" y2="0.478913" />
      <path d="M -37.895583,0.478913 L -37.894302,0.459721" />
      <path d="M -37.894302,0.459721 C -37.895605,0.273471 -38.251109,0.151583 -38.408497,0.116419" />
      <path d="M -38.408497,0.116419 C -38.67445,0.042442 -38.97814,-0.104285 -39.278317,-0.295144 C -39.579252,-0.486113 -39.87578,-0.719055 -40.149567,-0.9696 C -40.423561,-1.221512 -40.677229,-1.488608 -40.910571,-1.770889 C -41.145028,-2.053485 -41.360999,-2.348547 -41.576519,-2.678346" />
      <line x1="-41.576519" y1="-2.968328" x2="-41.576519" y2="-2.678346" />
      <path d="M -41.576519,-2.968328 Q -41.463656,-3.284816 -41.337302,-3.596598" />
      <path d="M -41.576519,-2.678346 Q -41.463656,-2.994833 -41.337302,-3.306616" />
      <line x1="-41.337302" y1="-3.596598" x2="-41.337302" y2="-3.306616" />
      <path d="M -41.337302,-3.596598 C -40.950602,-3.71638 -40.586908,-3.80929 -40.217442,-3.881276 C -39.849041,-3.953707 -39.475288,-4.001997 -39.096182,-4.026148 C -38.718152,-4.049381 -38.334548,-4.045134 -37.975785,-4.006042 C -37.617676,-3.967332 -37.286546,-3.892673 -37.033211,-3.785554" />
      <path d="M -41.337302,-3.306616 C -40.950602,-3.426397 -40.586908,-3.519308 -40.217442,-3.591294 C -39.849041,-3.663724 -39.475288,-3.712015 -39.096182,-3.736166 C -38.718152,-3.759398 -38.334548,-3.755151 -37.975785,-3.716059 C -37.617676,-3.677349 -37.286546,-3.60269 -37.033211,-3.495572" />
      <line x1="-37.033211" y1="-3.785554" x2="-37.033211" y2="-3.495572" />
      <path d="M -37.033211,-3.785554 C -36.884327,-3.713211 -36.51029,-3.581307 -36.396858,-3.747256" />
      <path d="M -37.033211,-3.495572 C -36.884327,-3.423228 -36.51029,-3.291325 -36.396858,-3.457273" />
      <line x1="-36.396858" y1="-3.747256" x2="-36.396858" y2="-3.457273" />
      <path d="M -36.396858,-3.747256 Q -36.095226,-4.246712 -35.745148,-4.716394" />
      <path d="M -36.396858,-3.457273 Q -36.082572,-3.977676 -35.715804,-4.465612" />
      <line x1="-35.715804" y1="-4.660425" x2="-35.715804" y2="-4.465612" />
      <path d="M -35.715804,-4.465612 Q -35.689335,-4.505798 -35.689899,-4.552761" />
      <path d="M -35.689899,-4.552761 C -35.690542,-4.716249 -35.903986,-4.920596 -36.013582,-5.00519" />
      <path d="M -36.013582,-5.00519 C -36.219659,-5.182276 -36.426753,-5.440576 -36.610675,-5.737181 C -36.79523,-6.034198 -36.956785,-6.367202 -37.08987,-6.706623 C -37.222523,-7.047361 -37.329978,-7.393339 -37.412236,-7.744559 C -37.495355,-8.096526 -37.556168,-8.452047 -37.600826,-8.838678" />
      <line x1="-37.600826" y1="-9.12866" x2="-37.600826" y2="-8.838678" />
      <path d="M -37.600826,-9.12866 Q -37.355656,-9.366941 -37.100464,-9.595379" />
      <path d="M -37.600826,-8.838678 Q -37.355656,-9.076958 -37.100464,-9.305397" />
      <line x1="-37.100464" y1="-9.595379" x2="-37.100464" y2="-9.305397" />
      <path d="M -37.100464,-9.595379 C -36.697755,-9.542726 -36.327955,-9.475414 -35.962442,-9.386854 C -35.597687,-9.299137 -35.239054,-9.187448 -34.886542,-9.051787 C -34.535416,-8.915745 -34.191726,-8.752631 -33.886215,-8.568437 C -33.581119,-8.384859 -33.316629,-8.180095 -33.136946,-7.97839" />
      <path d="M -37.100464,-9.305397 C -36.697755,-9.252743 -36.327955,-9.185432 -35.962442,-9.096872 C -35.597687,-9.009154 -35.239054,-8.897465 -34.886542,-8.761804 C -34.535416,-8.625763 -34.191726,-8.462648 -33.886215,-8.278455 C -33.581119,-8.094876 -33.316629,-7.890113 -33.136946,-7.688407" />
      <line x1="-33.136946" y1="-7.97839" x2="-33.136946" y2="-7.688407" />
      <path d="M -33.136946,-7.97839 C -33.035604,-7.851388 -32.758409,-7.577232 -32.580975,-7.679644" />
      <path d="M -33.136946,-7.688407 C -33.035604,-7.561405 -32.758409,-7.287249 -32.580975,-7.389662" />
      <line x1="-32.580975" y1="-7.679644" x2="-32.580975" y2="-7.389662" />
      <path d="M -32.580975,-7.679644 Q -32.061881,-8.018006 -31.510223,-8.305325" />
      <path d="M -32.580975,-7.389662 Q -32.061881,-7.728024 -31.510223,-8.015342" />
      <line x1="-31.510223" y1="-8.305325" x2="-31.510223" y2="-8.015342" />
      <path d="M -31.510223,-8.305325 Q -31.46495,-8.33259 -31.4442,-8.379703" />
      <path d="M -31.510223,-8.015342 C -31.444818,-8.053405 -31.421325,-8.127834 -31.421345,-8.213098" />
      <path d="M -31.421345,-8.213098 C -31.421471,-8.358173 -31.488456,-8.533558 -31.533886,-8.625135" />
      <path d="M -31.760958,-10.298706 C -31.760802,-10.757853 -31.707226,-11.224031 -31.616388,-11.673467 C -31.524606,-12.125591 -31.397775,-12.56102 -31.225978,-13.028059" />
      <path d="M -31.533886,-8.625135 C -31.687525,-8.981195 -31.762018,-9.489353 -31.760958,-10.008723" />
      <path d="M -31.760958,-10.008723 C -31.760802,-10.46787 -31.707226,-10.934048 -31.616388,-11.383485 C -31.524606,-11.835608 -31.397775,-12.271038 -31.225978,-12.738076" />
      <line x1="-31.225978" y1="-13.028059" x2="-31.225978" y2="-12.738076" />
      <path d="M -31.225978,-13.028059 Q -30.89706,-13.140937 -30.563574,-13.240787" />
      <path d="M -31.225978,-12.738076 Q -30.89706,-12.850955 -30.563574,-12.950805" />
      <line x1="-30.563574" y1="-13.240787" x2="-30.563574" y2="-12.950805" />
      <path d="M -30.563574,-13.240787 C -30.224617,-13.026127 -29.921956,-12.811926 -29.63279,-12.58036 C -29.343925,-12.349868 -29.071443,-12.100321 -28.815345,-11.831717 C -28.560668,-11.563346 -28.324964,-11.273671 -28.133214,-10.980858 C -27.941561,-10.688771 -27.796096,-10.394458 -27.725653,-10.138117" />
      <path d="M -30.563574,-12.950805 C -30.224617,-12.736144 -29.921956,-12.521943 -29.63279,-12.290377 C -29.343925,-12.059886 -29.071443,-11.810338 -28.815345,-11.541735 C -28.560668,-11.273364 -28.324964,-10.983688 -28.133214,-10.690875 C -27.941561,-10.398789 -27.796096,-10.104476 -27.725653,-9.848134" />
      <line x1="-27.725653" y1="-10.138117" x2="-27.725653" y2="-9.848134" />
      <path d="M -27.725653,-10.138117 C -27.691925,-9.98161 -27.566473,-9.619502 -27.360181,-9.638095" />
      <path d="M -27.725653,-9.848134 C -27.691925,-9.691628 -27.566473,-9.329519 -27.360181,-9.348112" />
      <line x1="-27.360181" y1="-9.638095" x2="-27.360181" y2="-9.348112" />
      <path d="M -27.360181,-9.638095 Q -26.739092,-9.727399 -26.111805,-9.757193" />
      <path d="M -27.360181,-9.348112 Q -26.739092,-9.437417 -26.111805,-9.467211" />
      <line x1="-26.111805" y1="-9.757193" x2="-26.111805" y2="-9.467211" />
      <path d="M -26.111805,-9.757193 C -25.905737,-9.777941 -25.857448,-10.156625 -25.856666,-10.316423" />
      <path d="M -26.111805,-9.467211 C -25.905737,-9.487958 -25.857448,-9.866642 -25.856666,-10.026441" />
      <line x1="-25.856666" y1="-10.316423" x2="-25.856666" y2="-10.026441" />
      <path d="M -25.856666,-10.316423 C -25.840486,-10.581029 -25.758593,-10.897033 -25.630961,-11.21958 C -25.503384,-11.542858 -25.332071,-11.871364 -25.137764,-12.182569 C -24.942111,-12.494271 -24.726467,-12.790387 -24.490831,-13.070918 C -24.255121,-13.352558 -24.0026,-13.619725 -23.714593,-13.8942" />
      <path d="M -25.856666,-10.026441 C -25.840486,-10.291047 -25.758593,-10.60705 -25.630961,-10.929597 C -25.503384,-11.252875 -25.332071,-11.581381 -25.137764,-11.892587 C -24.942111,-12.204288 -24.726467,-12.500404 -24.490831,-12.780935 C -24.255121,-13.062575 -24.0026,-13.329742 -23.714593,-13.604217" />
      <line x1="-23.714593" y1="-13.8942" x2="-23.714593" y2="-13.604217" />
      <path d="M -23.714593,-13.8942 Q -23.367072,-13.85932 -23.021343,-13.810804" />
      <path d="M -23.714593,-13.604217 Q -23.367072,-13.569337 -23.021343,-13.520822" />
      <line x1="-23.021343" y1="-13.810804" x2="-23.021343" y2="-13.520822" />
      <path d="M -23.021343,-13.810804 C -22.664521,-13.236925 -22.392765,-12.69425 -22.179299,-12.09837 C -21.96918,-11.510887 -21.828302,-10.865965 -21.828458,-10.313863" />
      <path d="M -23.021343,-13.520822 C -22.664521,-12.946942 -22.392765,-12.404267 -22.179299,-11.808387 C -21.96918,-11.220905 -21.828302,-10.575982 -21.828458,-10.02388" />
      <path d="M -21.828458,-10.02388 Q -21.828265,-9.762057 -21.871103,-9.546992" />
      <path d="M -21.897099,-9.414985 C -21.879839,-9.329946 -21.841402,-9.259987 -21.768516,-9.234711" />
      <path d="M -21.871103,-9.546992 C -21.889133,-9.477911 -21.908936,-9.366633 -21.908956,-9.257064" />
      <path d="M -21.908956,-9.257064 C -21.909005,-9.118688 -21.87703,-8.982423 -21.768516,-8.944729" />
      <line x1="-21.768516" y1="-9.234711" x2="-21.768516" y2="-8.944729" />
      <path d="M -21.768516,-9.234711 Q -21.168448,-9.057271 -20.589774,-8.823639" />
      <path d="M -21.768516,-8.944729 Q -21.168448,-8.767288 -20.589774,-8.533657" />
      <line x1="-20.589774" y1="-8.823639" x2="-20.589774" y2="-8.533657" />
      <path d="M -20.589774,-8.823639 C -20.394706,-8.756764 -20.179518,-9.077895 -20.106367,-9.221544" />
      <path d="M -20.589774,-8.533657 C -20.394706,-8.466782 -20.179518,-8.787912 -20.106367,-8.931562" />
      <line x1="-20.106367" y1="-9.221544" x2="-20.106367" y2="-8.931562" />
      <path d="M -20.106367,-9.221544 C -19.971827,-9.453227 -19.754779,-9.703931 -19.493555,-9.941538 C -19.23205,-10.179826 -18.928769,-10.404664 -18.612615,-10.604366 C -18.295024,-10.803957 -17.966487,-10.981204 -17.627004,-11.136108 C -17.286951,-11.291981 -16.938314,-11.427833 -16.554391,-11.555534" />
      <path d="M -20.106367,-8.931562 C -19.971827,-9.163245 -19.754779,-9.413949 -19.493555,-9.651556 C -19.23205,-9.889844 -18.928769,-10.114681 -18.612615,-10.314384 C -18.295024,-10.513974 -17.966487,-10.691221 -17.627004,-10.846125 C -17.286951,-11.001998 -16.938314,-11.13785 -16.554391,-11.265551" />
      <line x1="-16.554391" y1="-11.555534" x2="-16.554391" y2="-11.265551" />
      <path d="M -16.554391,-11.555534 Q -16.257099,-11.379803 -15.967603,-11.192532" />
      <path d="M -16.554391,-11.265551 Q -16.257099,-11.089821 -15.967603,-10.902549" />
      <line x1="-15.967603" y1="-11.192532" x2="-15.967603" y2="-10.902549" />
      <path d="M -15.967603,-11.192532 Q -15.92419,-10.728937 -15.924154,-10.296361" />
      <path d="M -15.967603,-10.902549 Q -15.92419,-10.438955 -15.924154,-10.006379" />
      <path d="M -15.924154,-10.006379 C -15.924261,-9.431643 -15.9814,-8.852774 -16.115842,-8.286687 C -16.248198,-7.725687 -16.466863,-7.185068 -16.732864,-6.844626" />
      <path d="M -16.919038,-6.555111 L -16.913481,-6.54939" />
      <path d="M -16.732864,-6.844626 C -16.815019,-6.749994 -16.960826,-6.542051 -16.961207,-6.384091" />
      <path d="M -16.961207,-6.384091 Q -16.962748,-6.310415 -16.913481,-6.259407" />
      <line x1="-16.913481" y1="-6.54939" x2="-16.913481" y2="-6.259407" />
      <path d="M -16.913481,-6.54939 Q -16.453282,-6.140348 -16.037835,-5.689565" />
      <path d="M -16.913481,-6.259407 Q -16.453282,-5.850366 -16.037835,-5.399582" />
      <line x1="-16.037835" y1="-5.689565" x2="-16.037835" y2="-5.399582" />
      <path d="M -16.037835,-5.689565 C -15.892404,-5.548313 -15.552937,-5.748286 -15.421905,-5.847335" />
      <path d="M -16.037835,-5.399582 C -15.892404,-5.25833 -15.552937,-5.458304 -15.421905,-5.557352" />
      <line x1="-15.421905" y1="-5.847335" x2="-15.421905" y2="-5.557352" />
      <path d="M -15.421905,-5.847335 C -15.195652,-6.000207 -14.886438,-6.135957 -14.543361,-6.241562 C -14.199722,-6.347665 -13.824543,-6.424302 -13.44916,-6.472948 C -13.072533,-6.520896 -12.696174,-6.544168 -12.320082,-6.542764 C -11.943038,-6.541997 -11.567336,-6.519627 -11.163538,-6.475261" />
      <path d="M -15.421905,-5.557352 C -15.195652,-5.710225 -14.886438,-5.845974 -14.543361,-5.95158 C -14.199722,-6.057683 -13.824543,-6.13432 -13.44916,-6.182965 C -13.072533,-6.230913 -12.696174,-6.254185 -12.320082,-6.252782 C -11.943038,-6.252015 -11.567336,-6.229645 -11.163538,-6.185279" />
      <line x1="-11.163538" y1="-6.475261" x2="-11.163538" y2="-6.185279" />
      <path d="M -11.163538,-6.475261 Q -10.975358,-6.193487 -10.799433,-5.90455" />
      <path d="M -11.163538,-6.185279 Q -10.975358,-5.903504 -10.799433,-5.614568" />
      <line x1="-10.799433" y1="-5.90455" x2="-10.799433" y2="-5.614568" />
      <path d="M -10.799433,-5.614568 C -10.942683,-5.250542 -11.093541,-4.920483 -11.265091,-4.599152 C -11.435615,-4.278341 -11.629196,-3.968576 -11.845834,-3.669857 C -12.062553,-3.372516 -12.305196,-3.088136 -12.560816,-2.84407 C -12.815718,-2.600255 -13.083165,-2.39904 -13.328625,-2.276272" />
      <path d="M -13.328625,-2.276272 C -13.467821,-2.215439 -13.763966,-2.045633 -13.764974,-1.872413" />
      <path d="M -13.764974,-1.872413 Q -13.765069,-1.848117 -13.756672,-1.824008" />
      <path d="M 24.026635,-13.786532 L 24.026635,-13.49655" />
      <path d="M 33.977046,-13.796146 L 33.977046,-13.506163" />
      <path d="M 39.880716,-13.800696 L 39.880716,-13.510714" />
      <path d="M 35.817436,7.787255 L 35.817436,8.077237" />
      <path d="M 25.867026,7.796868 L 25.867026,8.08685" />
      <path d="M 19.963355,7.801418 L 19.963355,8.091401" />
      <path d="M 7.634672,11.261663 L 7.634672,11.551646" />
      <path d="M -2.207494,11.257605 L -2.207494,11.547587" />
      <path d="M -4.634537,-12.124988 L -4.634537,-11.835006" />
      <path d="M 1.270703,-12.109761 L 1.270703,-11.819778" />
      <path d="M 5.205497,-12.124686 L 5.205497,-11.834703" />
      <path d="M 11.111073,-12.125342 L 11.111073,-11.83536" />
      <path d="M -19.214425,14.87192 L -19.214425,15.161903" />
      <path d="M -29.146925,14.887078 L -29.146925,15.17706" />
      <path d="M -35.051229,14.869576 L -35.051229,15.159559" />
      <path d="M -31.760958,-10.298706 L -31.760958,-10.008723" />
      <path d="M -21.828458,-10.313863 L -21.828458,-10.02388" />
      <path d="M -15.924154,-10.296361 L -15.924154,-10.006379" />
    </g>
  </g>
</svg>